<?xml version="1.0" standalone="no"?>
<!DOCTYPE svg PUBLIC "-//W3C//DTD SVG 20010904//EN"
"http://www.w3.org/TR/2001/REC-SVG-20010904/DTD/svg10.dtd">
<svg width="3400px" height="2500px"
xmlns="http://www.w3.org/2000/svg" xmlns:xlink="http://www.w3.org/1999/xlink">
<defs><line id="Vline" x1="0" y1="-2200" x2="0" y2="300" stroke="#eeeeee" /><line id="Hline" x1="-200" y1="0" x2="3200" y2="0" stroke="#eeeeee" />
<symbol id="bot-OPOS6UL"><circle cx="150" cy="150" r="150" fill="none" stroke="slategray" /><circle cx="150" cy="150" r="10" fill="none" stroke="slategray" /><rect x="80" y="0" width="70" height="300" style="fill:none;stroke:slategray;stroke-width:2px;" /><line x1="150" y1="0" x2="400" y2="150" stroke="slategray" stroke-width="4"/><line x1="150" y1="300" x2="400" y2="150" stroke="slategray" stroke-width="4"/><line x1="400" y1="60" x2="400" y2="240" stroke="blue" stroke-width="4"/></symbol><symbol id="bot-OPOS6UL-RED"><circle cx="150" cy="150" r="150" fill="none" stroke="red" /><circle cx="150" cy="150" r="10" fill="none" stroke="red" /><rect x="80" y="0" width="70" height="300" style="fill:none;stroke:red;stroke-width:2px;" /><line x1="150" y1="0" x2="400" y2="150" stroke="red" stroke-width="4"/><line x1="150" y1="300" x2="400" y2="150" stroke="red" stroke-width="4"/><line x1="400" y1="60" x2="400" y2="240" stroke="red" stroke-width="4"/></symbol><symbol id="bot-OPOS6UL-ORANGE"><circle cx="150" cy="150" r="150" fill="none" stroke="orange" /><circle cx="150" cy="150" r="10" fill="none" stroke="orange" /><rect x="80" y="0" width="70" height="300" style="fill:none;stroke:orange;stroke-width:2px;" /><line x1="150" y1="0" x2="400" y2="150" stroke="orange" stroke-width="4"/><line x1="150" y1="300" x2="400" y2="150" stroke="orange" stroke-width="4"/><line x1="400" y1="60" x2="400" y2="240" stroke="orange" stroke-width="4"/></symbol><symbol id="bot-OPOS6UL-GREEN"><circle cx="150" cy="150" r="150" fill="none" stroke="green" /><circle cx="150" cy="150" r="10" fill="none" stroke="green" /><rect x="80" y="0" width="70" height="300" style="fill:none;stroke:green;stroke-width:2px;" /><line x1="150" y1="0" x2="400" y2="150" stroke="green" stroke-width="4"/><line x1="150" y1="300" x2="400" y2="150" stroke="green" stroke-width="4"/><line x1="400" y1="60" x2="400" y2="240" stroke="green" stroke-width="4"/></symbol>
</defs>
<g transform="translate(200,2200)">
<use x="0" y="300" xlink:href="#Hline" />
<text x="0" y="300" dx="-80" dy="-3" fill="#444444" font-size="30">-300</text>
<use x="0" y="200" xlink:href="#Hline" />
<text x="0" y="200" dx="-80" dy="-3" fill="#444444" font-size="30">-200</text>
<use x="0" y="100" xlink:href="#Hline" />
<text x="0" y="100" dx="-80" dy="-3" fill="#444444" font-size="30">-100</text>
<use x="0" y="0" xlink:href="#Hline" />
<text x="0" y="0" dx="-80" dy="-3" fill="#444444" font-size="30">0</text>
<use x="0" y="-100" xlink:href="#Hline" />
<text x="0" y="-100" dx="-80" dy="-3" fill="#444444" font-size="30">100</text>
<use x="0" y="-200" xlink:href="#Hline" />
<text x="0" y="-200" dx="-80" dy="-3" fill="#444444" font-size="30">200</text>
<use x="0" y="-300" xlink:href="#Hline" />
<text x="0" y="-300" dx="-80" dy="-3" fill="#444444" font-size="30">300</text>
<use x="0" y="-400" xlink:href="#Hline" />
<text x="0" y="-400" dx="-80" dy="-3" fill="#444444" font-size="30">400</text>
<use x="0" y="-500" xlink:href="#Hline" />
<text x="0" y="-500" dx="-80" dy="-3" fill="#444444" font-size="30">500</text>
<use x="0" y="-600" xlink:href="#Hline" />
<text x="0" y="-600" dx="-80" dy="-3" fill="#444444" font-size="30">600</text>
<use x="0" y="-700" xlink:href="#Hline" />
<text x="0" y="-700" dx="-80" dy="-3" fill="#444444" font-size="30">700</text>
<use x="0" y="-800" xlink:href="#Hline" />
<text x="0" y="-800" dx="-80" dy="-3" fill="#444444" font-size="30">800</text>
<use x="0" y="-900" xlink:href="#Hline" />
<text x="0" y="-900" dx="-80" dy="-3" fill="#444444" font-size="30">900</text>
<use x="0" y="-1000" xlink:href="#Hline" />
<text x="0" y="-1000" dx="-80" dy="-3" fill="#444444" font-size="30">1000</text>
<use x="0" y="-1100" xlink:href="#Hline" />
<text x="0" y="-1100" dx="-80" dy="-3" fill="#444444" font-size="30">1100</text>
<use x="0" y="-1200" xlink:href="#Hline" />
<text x="0" y="-1200" dx="-80" dy="-3" fill="#444444" font-size="30">1200</text>
<use x="0" y="-1300" xlink:href="#Hline" />
<text x="0" y="-1300" dx="-80" dy="-3" fill="#444444" font-size="30">1300</text>
<use x="0" y="-1400" xlink:href="#Hline" />
<text x="0" y="-1400" dx="-80" dy="-3" fill="#444444" font-size="30">1400</text>
<use x="0" y="-1500" xlink:href="#Hline" />
<text x="0" y="-1500" dx="-80" dy="-3" fill="#444444" font-size="30">1500</text>
<use x="0" y="-1600" xlink:href="#Hline" />
<text x="0" y="-1600" dx="-80" dy="-3" fill="#444444" font-size="30">1600</text>
<use x="0" y="-1700" xlink:href="#Hline" />
<text x="0" y="-1700" dx="-80" dy="-3" fill="#444444" font-size="30">1700</text>
<use x="0" y="-1800" xlink:href="#Hline" />
<text x="0" y="-1800" dx="-80" dy="-3" fill="#444444" font-size="30">1800</text>
<use x="0" y="-1900" xlink:href="#Hline" />
<text x="0" y="-1900" dx="-80" dy="-3" fill="#444444" font-size="30">1900</text>
<use x="0" y="-2000" xlink:href="#Hline" />
<text x="0" y="-2000" dx="-80" dy="-3" fill="#444444" font-size="30">2000</text>
<use x="0" y="-2100" xlink:href="#Hline" />
<text x="0" y="-2100" dx="-80" dy="-3" fill="#444444" font-size="30">2100</text>
<use x="0" y="-2200" xlink:href="#Hline" />
<text x="0" y="-2200" dx="-80" dy="-3" fill="#444444" font-size="30">2200</text>
<use x="-200" y="0" xlink:href="#Vline" />
<text x="-200" y="0" dx="1" dy="20" fill="#444444" font-size="30">-200</text>
<use x="-100" y="0" xlink:href="#Vline" />
<text x="-100" y="0" dx="1" dy="20" fill="#444444" font-size="30">-100</text>
<use x="0" y="0" xlink:href="#Vline" />
<text x="0" y="0" dx="1" dy="20" fill="#444444" font-size="30">0</text>
<use x="100" y="0" xlink:href="#Vline" />
<text x="100" y="0" dx="1" dy="20" fill="#444444" font-size="30">100</text>
<use x="200" y="0" xlink:href="#Vline" />
<text x="200" y="0" dx="1" dy="20" fill="#444444" font-size="30">200</text>
<use x="300" y="0" xlink:href="#Vline" />
<text x="300" y="0" dx="1" dy="20" fill="#444444" font-size="30">300</text>
<use x="400" y="0" xlink:href="#Vline" />
<text x="400" y="0" dx="1" dy="20" fill="#444444" font-size="30">400</text>
<use x="500" y="0" xlink:href="#Vline" />
<text x="500" y="0" dx="1" dy="20" fill="#444444" font-size="30">500</text>
<use x="600" y="0" xlink:href="#Vline" />
<text x="600" y="0" dx="1" dy="20" fill="#444444" font-size="30">600</text>
<use x="700" y="0" xlink:href="#Vline" />
<text x="700" y="0" dx="1" dy="20" fill="#444444" font-size="30">700</text>
<use x="800" y="0" xlink:href="#Vline" />
<text x="800" y="0" dx="1" dy="20" fill="#444444" font-size="30">800</text>
<use x="900" y="0" xlink:href="#Vline" />
<text x="900" y="0" dx="1" dy="20" fill="#444444" font-size="30">900</text>
<use x="1000" y="0" xlink:href="#Vline" />
<text x="1000" y="0" dx="1" dy="20" fill="#444444" font-size="30">1000</text>
<use x="1100" y="0" xlink:href="#Vline" />
<text x="1100" y="0" dx="1" dy="20" fill="#444444" font-size="30">1100</text>
<use x="1200" y="0" xlink:href="#Vline" />
<text x="1200" y="0" dx="1" dy="20" fill="#444444" font-size="30">1200</text>
<use x="1300" y="0" xlink:href="#Vline" />
<text x="1300" y="0" dx="1" dy="20" fill="#444444" font-size="30">1300</text>
<use x="1400" y="0" xlink:href="#Vline" />
<text x="1400" y="0" dx="1" dy="20" fill="#444444" font-size="30">1400</text>
<use x="1500" y="0" xlink:href="#Vline" />
<text x="1500" y="0" dx="1" dy="20" fill="#444444" font-size="30">1500</text>
<use x="1600" y="0" xlink:href="#Vline" />
<text x="1600" y="0" dx="1" dy="20" fill="#444444" font-size="30">1600</text>
<use x="1700" y="0" xlink:href="#Vline" />
<text x="1700" y="0" dx="1" dy="20" fill="#444444" font-size="30">1700</text>
<use x="1800" y="0" xlink:href="#Vline" />
<text x="1800" y="0" dx="1" dy="20" fill="#444444" font-size="30">1800</text>
<use x="1900" y="0" xlink:href="#Vline" />
<text x="1900" y="0" dx="1" dy="20" fill="#444444" font-size="30">1900</text>
<use x="2000" y="0" xlink:href="#Vline" />
<text x="2000" y="0" dx="1" dy="20" fill="#444444" font-size="30">2000</text>
<use x="2100" y="0" xlink:href="#Vline" />
<text x="2100" y="0" dx="1" dy="20" fill="#444444" font-size="30">2100</text>
<use x="2200" y="0" xlink:href="#Vline" />
<text x="2200" y="0" dx="1" dy="20" fill="#444444" font-size="30">2200</text>
<use x="2300" y="0" xlink:href="#Vline" />
<text x="2300" y="0" dx="1" dy="20" fill="#444444" font-size="30">2300</text>
<use x="2400" y="0" xlink:href="#Vline" />
<text x="2400" y="0" dx="1" dy="20" fill="#444444" font-size="30">2400</text>
<use x="2500" y="0" xlink:href="#Vline" />
<text x="2500" y="0" dx="1" dy="20" fill="#444444" font-size="30">2500</text>
<use x="2600" y="0" xlink:href="#Vline" />
<text x="2600" y="0" dx="1" dy="20" fill="#444444" font-size="30">2600</text>
<use x="2700" y="0" xlink:href="#Vline" />
<text x="2700" y="0" dx="1" dy="20" fill="#444444" font-size="30">2700</text>
<use x="2800" y="0" xlink:href="#Vline" />
<text x="2800" y="0" dx="1" dy="20" fill="#444444" font-size="30">2800</text>
<use x="2900" y="0" xlink:href="#Vline" />
<text x="2900" y="0" dx="1" dy="20" fill="#444444" font-size="30">2900</text>
<use x="3000" y="0" xlink:href="#Vline" />
<text x="3000" y="0" dx="1" dy="20" fill="#444444" font-size="30">3000</text>
<use x="3100" y="0" xlink:href="#Vline" />
<text x="3100" y="0" dx="1" dy="20" fill="#444444" font-size="30">3100</text>
<use x="3200" y="0" xlink:href="#Vline" />
<text x="3200" y="0" dx="1" dy="20" fill="#444444" font-size="30">3200</text>
</g>
<g transform="translate(200,2200)">
<use x="2719" y="-950" xlink:href="#bot-OPOS6UL" transform="rotate(179.998,2869,-800)" />
<use x="2621" y="-950" xlink:href="#bot-OPOS6UL" transform="rotate(-179.976,2771,-800)" />
<g transform="scale(1,-1) "><rect x="2600" y="500" width="400" height="600" fill="none" stroke="#cc00cc" stroke-width="4" /><line x1 = "2600" y1 = "500" x2 = "3000" y2 = "500" stroke="#cc00cc" stroke-width="4"/><circle cx='2800' cy='800' r='3' fill='none' stroke='#cc00cc' /><line x1 = "2800" y1 = "800" x2 = "2775" y2 = "800" stroke = "#cc00cc" stroke-width = "4"/></g><text x='2820' y='-810' font-size='30' fill='#cc00cc'>depart</text>
<g transform="scale(1,-1) "><rect x="2600" y="0" width="400" height="100" fill="none" stroke="#cc00cc" stroke-width="4" /><line x1 = "2600" y1 = "0" x2 = "3000" y2 = "0" stroke="#cc00cc" stroke-width="4"/><circle cx='2650' cy='180' r='3' fill='none' stroke='#cc00cc' /><line x1 = "2650" y1 = "180" x2 = "2650" y2 = "155" stroke = "#cc00cc" stroke-width = "4"/></g><text x='2670' y='-190' font-size='30' fill='#cc00cc'>zone_exp</text>
<g transform="scale(1,-1) "><rect x="1100" y="1800" width="200" height="200" fill="none" stroke="#cc00cc" stroke-width="4" /><line x1 = "1100" y1 = "1800" x2 = "1300" y2 = "1800" stroke="#cc00cc" stroke-width="4"/><circle cx='1200' cy='1500' r='3' fill='none' stroke='#cc00cc' /><line x1 = "1200" y1 = "1500" x2 = "1200" y2 = "1525" stroke = "#cc00cc" stroke-width = "4"/></g><text x='1220' y='-1510' font-size='30' fill='#cc00cc'>zone_petitport</text>
<g transform="scale(1,-1) "><rect x="2600" y="1100" width="400" height="400" fill="none" stroke="#cc00cc" stroke-width="4" /><line x1 = "2600" y1 = "1100" x2 = "3000" y2 = "1100" stroke="#cc00cc" stroke-width="4"/><circle cx='2700' cy='1400' r='3' fill='none' stroke='#cc00cc' /><line x1 = "2700" y1 = "1400" x2 = "2717.68" y2 = "1382.32" stroke = "#cc00cc" stroke-width = "4"/></g><text x='2720' y='-1410' font-size='30' fill='#cc00cc'>zone_south</text>
<g transform="scale(1,-1) "><rect x="2700" y="100" width="300" height="400" fill="none" stroke="#cc00cc" stroke-width="4" /><line x1 = "2700" y1 = "100" x2 = "3000" y2 = "100" stroke="#cc00cc" stroke-width="4"/><circle cx='2650' cy='250' r='3' fill='none' stroke='#cc00cc' /><line x1 = "2650" y1 = "250" x2 = "2675" y2 = "250" stroke = "#cc00cc" stroke-width = "4"/></g><text x='2670' y='-260' font-size='30' fill='#cc00cc'>zone_north</text>
<g transform="scale(1,-1) "><rect x="2600" y="1050" width="50" height="50" fill="none" stroke="#cc00cc" stroke-width="4" /><line x1 = "2600" y1 = "1050" x2 = "2650" y2 = "1050" stroke="#cc00cc" stroke-width="4"/><circle cx='2300' cy='1100' r='3' fill='none' stroke='#cc00cc' /><line x1 = "2300" y1 = "1100" x2 = "2325" y2 = "1100" stroke = "#cc00cc" stroke-width = "4"/></g><text x='2320' y='-1110' font-size='30' fill='#cc00cc'>zone_green_left</text>
<g transform="scale(1,-1) "><rect x="2200" y="1900" width="800" height="100" fill="none" stroke="#cc00cc" stroke-width="4" /><line x1 = "2200" y1 = "1900" x2 = "3000" y2 = "1900" stroke="#cc00cc" stroke-width="4"/><circle cx='2420' cy='1290' r='3' fill='none' stroke='#cc00cc' /><line x1 = "2420" y1 = "1290" x2 = "2395" y2 = "1290" stroke = "#cc00cc" stroke-width = "4"/></g><text x='2440' y='-1300' font-size='30' fill='#cc00cc'>zone_fanion</text>
<use x="2337" y="-860" xlink:href="#bot-OPOS6UL" transform="rotate(156.779,2487,-710)" />
<use x="2191" y="-662" xlink:href="#bot-OPOS6UL" transform="rotate(119.607,2341,-512)" />
<use x="2333" y="-461" xlink:href="#bot-OPOS6UL" transform="rotate(46.7284,2483,-311)" />
<use x="2498" y="-331" xlink:href="#bot-OPOS6UL" transform="rotate(34.0279,2648,-181)" />
<polyline points='2770,-800 2485.11,-709.722 2340,-510 2485.11,-310.278 2650,-180 ' style='fill:none;stroke:red;stroke-width:4' />
<use x="2498" y="-331" xlink:href="#bot-OPOS6UL-RED" transform="rotate(34.0279,2648,-181)" />
<use x="2498" y="-331" xlink:href="#bot-OPOS6UL" transform="rotate(34.0279,2648,-181)" />
<use x="2498" y="-331" xlink:href="#bot-OPOS6UL" transform="rotate(34.0279,2648,-181)" />
<use x="2499" y="-330" xlink:href="#bot-OPOS6UL" transform="rotate(33.7904,2649,-180)" />
<use x="2493" y="-342" xlink:href="#bot-OPOS6UL" transform="rotate(-146.19,2643,-192)" />
<use x="2191" y="-657" xlink:href="#bot-OPOS6UL" transform="rotate(-117.341,2341,-507)" />
<use x="2190" y="-658" xlink:href="#bot-OPOS6UL" transform="rotate(-117.234,2340,-508)" />
<use x="2268" y="-1438" xlink:href="#bot-OPOS6UL" transform="rotate(-60.5698,2418,-1288)" />
<polyline points='2643,-192 2485.11,-310.278 2340,-510 2350,-1080 2420,-1290 ' style='fill:none;stroke:red;stroke-width:4' />
<use x="2268" y="-1438" xlink:href="#bot-OPOS6UL-RED" transform="rotate(-60.5698,2418,-1288)" />
<use x="2268" y="-1438" xlink:href="#bot-OPOS6UL" transform="rotate(-60.5698,2418,-1288)" />
<use x="2581" y="-1558" xlink:href="#bot-OPOS6UL-RED" transform="rotate(-21.3313,2731,-1408)" />
<use x="2581" y="-1558" xlink:href="#bot-OPOS6UL" transform="rotate(-21.3313,2731,-1408)" />
<use x="2581" y="-1558" xlink:href="#bot-OPOS6UL-ORANGE" transform="rotate(-21.3313,2731,-1408)" />
<use x="2581" y="-1559" xlink:href="#bot-OPOS6UL" transform="rotate(-21.1555,2731,-1409)" />
<use x="2581" y="-1559" xlink:href="#bot-OPOS6UL" transform="rotate(-21.1555,2731,-1409)" />
<use x="2573" y="-1552" xlink:href="#bot-OPOS6UL" transform="rotate(-179.271,2723,-1402)" />
<use x="2572" y="-1552" xlink:href="#bot-OPOS6UL" transform="rotate(-179.918,2722,-1402)" />
<use x="2377" y="-1560" xlink:href="#bot-OPOS6UL" transform="rotate(-177.809,2527,-1410)" />
<use x="2140" y="-1550" xlink:href="#bot-OPOS6UL" transform="rotate(178.586,2290,-1400)" />
<use x="2139" y="-1550" xlink:href="#bot-OPOS6UL" transform="rotate(178.874,2289,-1400)" />
<use x="2141" y="-1452" xlink:href="#bot-OPOS6UL-ORANGE" transform="rotate(89.7309,2291,-1302)" />
<use x="2141" y="-1450" xlink:href="#bot-OPOS6UL" transform="rotate(89.5552,2291,-1300)" />
<polyline points='2291,-1300 2100,-800 ' style='fill:none;stroke:red;stroke-width:4' />
<use x="2141" y="-1450" xlink:href="#bot-OPOS6UL-RED" transform="rotate(89.5552,2291,-1300)" />
<use x="2141" y="-1450" xlink:href="#bot-OPOS6UL" transform="rotate(89.5552,2291,-1300)" />
<use x="2141" y="-1450" xlink:href="#bot-OPOS6UL-ORANGE" transform="rotate(89.5552,2291,-1300)" />
<use x="2141" y="-1450" xlink:href="#bot-OPOS6UL" transform="rotate(89.5496,2291,-1300)" />
<use x="2141" y="-1450" xlink:href="#bot-OPOS6UL" transform="rotate(89.5496,2291,-1300)" />
<use x="1974" y="-1002" xlink:href="#bot-OPOS6UL-ORANGE" transform="rotate(114.552,2124,-852)" />
<use x="1974" y="-1002" xlink:href="#bot-OPOS6UL-RED" transform="rotate(114.552,2124,-852)" />
<use x="1974" y="-1002" xlink:href="#bot-OPOS6UL-RED" transform="rotate(114.552,2124,-852)" />
<use x="1974" y="-1002" xlink:href="#bot-OPOS6UL" transform="rotate(114.552,2124,-852)" />
<use x="1974" y="-1002" xlink:href="#bot-OPOS6UL-RED" transform="rotate(114.552,2124,-852)" />
<use x="1974" y="-1002" xlink:href="#bot-OPOS6UL" transform="rotate(114.552,2124,-852)" />
</g>
</svg>
