<?xml version="1.0" standalone="no" ?>
<!DOCTYPE svg PUBLIC "-//W3C//DTD SVG 1.1//EN" "http://www.w3.org/Graphics/SVG/1.1/DTD/svg11.dtd">
<svg width="3400px" height="2500px" xmlns="http://www.w3.org/2000/svg" version="1.1" >
	<g transform="translate(200,2200) scale(1,-1)" >
	<polygon points="0,0 3400,0 3400,2500 0,2500 " fill="rgb(255,255,255)" stroke-width="5" stroke="rgb(255,0,0)" />
	<polygon points="0,0 129,0 129,2000 0,2000 " fill="rgb(0,255,255)" stroke-width="0" stroke="rgb(0,255,255)" />
	<polygon points="3000,0 2871,0 2871,2000 3000,2000 " fill="rgb(0,255,255)" stroke-width="0" stroke="rgb(0,255,255)" />
	<polygon points="0,0 3000,0 3000,129 0,129 " fill="rgb(0,255,255)" stroke-width="0" stroke="rgb(0,255,255)" />
	<polygon points="0,1871 3000,1871 3000,3871 0,3871 " fill="rgb(0,255,255)" stroke-width="0" stroke="rgb(0,255,255)" />
	<polygon points="1000,0 1500,0 1500,30 1000,30 " fill="rgb(0,255,255)" stroke-width="0" stroke="rgb(0,255,255)" />
	<polygon points="2000,0 1500,0 1500,30 2000,30 " fill="rgb(0,255,255)" stroke-width="0" stroke="rgb(0,255,255)" />
	<polygon points="660,510 514.894,709.722 280.106,633.435 280.106,386.565 514.894,310.278 " fill="rgb(0,255,255)" stroke-width="0" stroke="rgb(0,255,255)" />
	<polygon points="2340,510 2485.11,709.722 2719.89,633.435 2719.89,386.565 2485.11,310.278 " fill="rgb(0,255,255)" stroke-width="0" stroke="rgb(0,255,255)" />
	<polygon points="650,1080 450,1280 250,1080 450,880 " fill="rgb(0,255,255)" stroke-width="0" stroke="rgb(0,255,255)" />
	<polygon points="2750,1080 2550,1280 2350,1080 2550,880 " fill="rgb(0,255,255)" stroke-width="0" stroke="rgb(0,255,255)" />
	<polygon points="500,400 300,600 100,400 300,200 " fill="rgb(0,255,255)" stroke-width="0" stroke="rgb(0,255,255)" />
	<polygon points="2900,400 2700,600 2500,400 2700,200 " fill="rgb(0,255,255)" stroke-width="0" stroke="rgb(0,255,255)" />
	<polygon points="480,1200 300,1380 120,1200 300,1020 " fill="rgb(0,255,255)" stroke-width="0" stroke="rgb(0,255,255)" />
	<polygon points="2880,1200 2700,1380 2520,1200 2700,1020 " fill="rgb(0,255,255)" stroke-width="0" stroke="rgb(0,255,255)" />
	<polygon points="1150,400 1011.8,590.211 788.197,517.557 788.197,282.443 1011.8,209.789 " fill="rgb(0,255,255)" stroke-width="0" stroke="rgb(0,255,255)" />
	<polygon points="1850,400 1988.2,590.211 2211.8,517.557 2211.8,282.443 1988.2,209.789 " fill="rgb(0,255,255)" stroke-width="0" stroke="rgb(0,255,255)" />
	<polygon points="1470,1200 1331.8,1390.21 1108.2,1317.56 1108.2,1082.44 1331.8,1009.79 " fill="rgb(0,255,255)" stroke-width="0" stroke="rgb(0,255,255)" />
	<polygon points="1530,1200 1668.2,1390.21 1891.8,1317.56 1891.8,1082.44 1668.2,1009.79 " fill="rgb(0,255,255)" stroke-width="0" stroke="rgb(0,255,255)" />
	<polygon points="250,-100 147.487,147.487 -100,250 -347.487,147.487 -450,-100 -347.487,-347.487 -100,-450 147.487,-347.487 " fill="rgb(0,255,255)" stroke-width="0" stroke="rgb(0,255,255)" />
	<polygon points="250,-100 147.487,147.487 -100,250 -347.487,147.487 -450,-100 -347.487,-347.487 -100,-450 147.487,-347.487 " fill="rgb(0,255,255)" stroke-width="0" stroke="rgb(0,255,255)" />
	<polygon points="250,-100 147.487,147.487 -100,250 -347.487,147.487 -450,-100 -347.487,-347.487 -100,-450 147.487,-347.487 " fill="rgb(0,255,255)" stroke-width="0" stroke="rgb(0,255,255)" />
	<polygon points="250,-100 147.487,147.487 -100,250 -347.487,147.487 -450,-100 -347.487,-347.487 -100,-450 147.487,-347.487 " fill="rgb(0,255,255)" stroke-width="0" stroke="rgb(0,255,255)" />
	<line x1="0" y1="2000" x2="0" y2="1871" stroke-width="0.5" stroke="rgb(238,238,238)" />
	<line x1="3000" y1="0" x2="3000" y2="0" stroke-width="0.5" stroke="rgb(238,238,238)" />
	<line x1="3000" y1="2000" x2="3000" y2="1871" stroke-width="0.5" stroke="rgb(238,238,238)" />
	<line x1="660" y1="510" x2="514.894" y2="709.722" stroke-width="0.5" stroke="rgb(238,238,238)" />
	<line x1="660" y1="510" x2="514.894" y2="310.278" stroke-width="0.5" stroke="rgb(238,238,238)" />
	<line x1="660" y1="510" x2="650" y2="1080" stroke-width="0.5" stroke="rgb(238,238,238)" />
	<line x1="660" y1="510" x2="450" y2="880" stroke-width="0.5" stroke="rgb(238,238,238)" />
	<line x1="660" y1="510" x2="2550" y2="1280" stroke-width="0.5" stroke="rgb(238,238,238)" />
	<line x1="660" y1="510" x2="2350" y2="1080" stroke-width="0.5" stroke="rgb(238,238,238)" />
	<line x1="660" y1="510" x2="300" y2="1020" stroke-width="0.5" stroke="rgb(238,238,238)" />
	<line x1="660" y1="510" x2="2700" y2="1380" stroke-width="0.5" stroke="rgb(238,238,238)" />
	<line x1="660" y1="510" x2="1011.8" y2="590.211" stroke-width="0.5" stroke="rgb(238,238,238)" />
	<line x1="660" y1="510" x2="788.197" y2="517.557" stroke-width="0.5" stroke="rgb(238,238,238)" />
	<line x1="660" y1="510" x2="788.197" y2="282.443" stroke-width="0.5" stroke="rgb(238,238,238)" />
	<line x1="660" y1="510" x2="1108.2" y2="1317.56" stroke-width="0.5" stroke="rgb(238,238,238)" />
	<line x1="660" y1="510" x2="1108.2" y2="1082.44" stroke-width="0.5" stroke="rgb(238,238,238)" />
	<line x1="660" y1="510" x2="1331.8" y2="1009.79" stroke-width="0.5" stroke="rgb(238,238,238)" />
	<line x1="660" y1="510" x2="1891.8" y2="1082.44" stroke-width="0.5" stroke="rgb(238,238,238)" />
	<line x1="660" y1="510" x2="1668.2" y2="1009.79" stroke-width="0.5" stroke="rgb(238,238,238)" />
	<line x1="514.894" y1="709.722" x2="280.106" y2="633.435" stroke-width="0.5" stroke="rgb(238,238,238)" />
	<line x1="514.894" y1="709.722" x2="2485.11" y2="709.722" stroke-width="0.5" stroke="rgb(238,238,238)" />
	<line x1="514.894" y1="709.722" x2="650" y2="1080" stroke-width="0.5" stroke="rgb(238,238,238)" />
	<line x1="514.894" y1="709.722" x2="450" y2="880" stroke-width="0.5" stroke="rgb(238,238,238)" />
	<line x1="514.894" y1="709.722" x2="2350" y2="1080" stroke-width="0.5" stroke="rgb(238,238,238)" />
	<line x1="514.894" y1="709.722" x2="2550" y2="880" stroke-width="0.5" stroke="rgb(238,238,238)" />
	<line x1="514.894" y1="709.722" x2="300" y2="1020" stroke-width="0.5" stroke="rgb(238,238,238)" />
	<line x1="514.894" y1="709.722" x2="1011.8" y2="590.211" stroke-width="0.5" stroke="rgb(238,238,238)" />
	<line x1="514.894" y1="709.722" x2="788.197" y2="517.557" stroke-width="0.5" stroke="rgb(238,238,238)" />
	<line x1="514.894" y1="709.722" x2="1850" y2="400" stroke-width="0.5" stroke="rgb(238,238,238)" />
	<line x1="514.894" y1="709.722" x2="1988.2" y2="590.211" stroke-width="0.5" stroke="rgb(238,238,238)" />
	<line x1="514.894" y1="709.722" x2="1108.2" y2="1317.56" stroke-width="0.5" stroke="rgb(238,238,238)" />
	<line x1="514.894" y1="709.722" x2="1108.2" y2="1082.44" stroke-width="0.5" stroke="rgb(238,238,238)" />
	<line x1="514.894" y1="709.722" x2="1331.8" y2="1009.79" stroke-width="0.5" stroke="rgb(238,238,238)" />
	<line x1="514.894" y1="709.722" x2="1668.2" y2="1009.79" stroke-width="0.5" stroke="rgb(238,238,238)" />
	<line x1="280.106" y1="633.435" x2="650" y2="1080" stroke-width="0.5" stroke="rgb(238,238,238)" />
	<line x1="280.106" y1="633.435" x2="450" y2="880" stroke-width="0.5" stroke="rgb(238,238,238)" />
	<line x1="280.106" y1="633.435" x2="300" y2="1020" stroke-width="0.5" stroke="rgb(238,238,238)" />
	<line x1="280.106" y1="633.435" x2="1108.2" y2="1317.56" stroke-width="0.5" stroke="rgb(238,238,238)" />
	<line x1="280.106" y1="633.435" x2="1108.2" y2="1082.44" stroke-width="0.5" stroke="rgb(238,238,238)" />
	<line x1="280.106" y1="633.435" x2="1331.8" y2="1009.79" stroke-width="0.5" stroke="rgb(238,238,238)" />
	<line x1="514.894" y1="310.278" x2="300" y2="200" stroke-width="0.5" stroke="rgb(238,238,238)" />
	<line x1="514.894" y1="310.278" x2="788.197" y2="517.557" stroke-width="0.5" stroke="rgb(238,238,238)" />
	<line x1="514.894" y1="310.278" x2="788.197" y2="282.443" stroke-width="0.5" stroke="rgb(238,238,238)" />
	<line x1="514.894" y1="310.278" x2="1011.8" y2="209.789" stroke-width="0.5" stroke="rgb(238,238,238)" />
	<line x1="514.894" y1="310.278" x2="1108.2" y2="1082.44" stroke-width="0.5" stroke="rgb(238,238,238)" />
	<line x1="514.894" y1="310.278" x2="1331.8" y2="1009.79" stroke-width="0.5" stroke="rgb(238,238,238)" />
	<line x1="2340" y1="510" x2="2485.11" y2="709.722" stroke-width="0.5" stroke="rgb(238,238,238)" />
	<line x1="2340" y1="510" x2="2485.11" y2="310.278" stroke-width="0.5" stroke="rgb(238,238,238)" />
	<line x1="2340" y1="510" x2="650" y2="1080" stroke-width="0.5" stroke="rgb(238,238,238)" />
	<line x1="2340" y1="510" x2="450" y2="1280" stroke-width="0.5" stroke="rgb(238,238,238)" />
	<line x1="2340" y1="510" x2="2350" y2="1080" stroke-width="0.5" stroke="rgb(238,238,238)" />
	<line x1="2340" y1="510" x2="2550" y2="880" stroke-width="0.5" stroke="rgb(238,238,238)" />
	<line x1="2340" y1="510" x2="300" y2="1380" stroke-width="0.5" stroke="rgb(238,238,238)" />
	<line x1="2340" y1="510" x2="2700" y2="1020" stroke-width="0.5" stroke="rgb(238,238,238)" />
	<line x1="2340" y1="510" x2="1988.2" y2="590.211" stroke-width="0.5" stroke="rgb(238,238,238)" />
	<line x1="2340" y1="510" x2="2211.8" y2="517.557" stroke-width="0.5" stroke="rgb(238,238,238)" />
	<line x1="2340" y1="510" x2="2211.8" y2="282.443" stroke-width="0.5" stroke="rgb(238,238,238)" />
	<line x1="2340" y1="510" x2="1108.2" y2="1082.44" stroke-width="0.5" stroke="rgb(238,238,238)" />
	<line x1="2340" y1="510" x2="1331.8" y2="1009.79" stroke-width="0.5" stroke="rgb(238,238,238)" />
	<line x1="2340" y1="510" x2="1891.8" y2="1317.56" stroke-width="0.5" stroke="rgb(238,238,238)" />
	<line x1="2340" y1="510" x2="1891.8" y2="1082.44" stroke-width="0.5" stroke="rgb(238,238,238)" />
	<line x1="2340" y1="510" x2="1668.2" y2="1009.79" stroke-width="0.5" stroke="rgb(238,238,238)" />
	<line x1="2485.11" y1="709.722" x2="2719.89" y2="633.435" stroke-width="0.5" stroke="rgb(238,238,238)" />
	<line x1="2485.11" y1="709.722" x2="650" y2="1080" stroke-width="0.5" stroke="rgb(238,238,238)" />
	<line x1="2485.11" y1="709.722" x2="450" y2="880" stroke-width="0.5" stroke="rgb(238,238,238)" />
	<line x1="2485.11" y1="709.722" x2="2350" y2="1080" stroke-width="0.5" stroke="rgb(238,238,238)" />
	<line x1="2485.11" y1="709.722" x2="2550" y2="880" stroke-width="0.5" stroke="rgb(238,238,238)" />
	<line x1="2485.11" y1="709.722" x2="2700" y2="1020" stroke-width="0.5" stroke="rgb(238,238,238)" />
	<line x1="2485.11" y1="709.722" x2="1150" y2="400" stroke-width="0.5" stroke="rgb(238,238,238)" />
	<line x1="2485.11" y1="709.722" x2="1011.8" y2="590.211" stroke-width="0.5" stroke="rgb(238,238,238)" />
	<line x1="2485.11" y1="709.722" x2="1988.2" y2="590.211" stroke-width="0.5" stroke="rgb(238,238,238)" />
	<line x1="2485.11" y1="709.722" x2="2211.8" y2="517.557" stroke-width="0.5" stroke="rgb(238,238,238)" />
	<line x1="2485.11" y1="709.722" x2="1331.8" y2="1009.79" stroke-width="0.5" stroke="rgb(238,238,238)" />
	<line x1="2485.11" y1="709.722" x2="1891.8" y2="1317.56" stroke-width="0.5" stroke="rgb(238,238,238)" />
	<line x1="2485.11" y1="709.722" x2="1891.8" y2="1082.44" stroke-width="0.5" stroke="rgb(238,238,238)" />
	<line x1="2485.11" y1="709.722" x2="1668.2" y2="1009.79" stroke-width="0.5" stroke="rgb(238,238,238)" />
	<line x1="2719.89" y1="633.435" x2="2350" y2="1080" stroke-width="0.5" stroke="rgb(238,238,238)" />
	<line x1="2719.89" y1="633.435" x2="2550" y2="880" stroke-width="0.5" stroke="rgb(238,238,238)" />
	<line x1="2719.89" y1="633.435" x2="2700" y2="1020" stroke-width="0.5" stroke="rgb(238,238,238)" />
	<line x1="2719.89" y1="633.435" x2="1891.8" y2="1317.56" stroke-width="0.5" stroke="rgb(238,238,238)" />
	<line x1="2719.89" y1="633.435" x2="1891.8" y2="1082.44" stroke-width="0.5" stroke="rgb(238,238,238)" />
	<line x1="2719.89" y1="633.435" x2="1668.2" y2="1009.79" stroke-width="0.5" stroke="rgb(238,238,238)" />
	<line x1="2485.11" y1="310.278" x2="2700" y2="200" stroke-width="0.5" stroke="rgb(238,238,238)" />
	<line x1="2485.11" y1="310.278" x2="2211.8" y2="517.557" stroke-width="0.5" stroke="rgb(238,238,238)" />
	<line x1="2485.11" y1="310.278" x2="2211.8" y2="282.443" stroke-width="0.5" stroke="rgb(238,238,238)" />
	<line x1="2485.11" y1="310.278" x2="1988.2" y2="209.789" stroke-width="0.5" stroke="rgb(238,238,238)" />
	<line x1="2485.11" y1="310.278" x2="1891.8" y2="1082.44" stroke-width="0.5" stroke="rgb(238,238,238)" />
	<line x1="2485.11" y1="310.278" x2="1668.2" y2="1009.79" stroke-width="0.5" stroke="rgb(238,238,238)" />
	<line x1="650" y1="1080" x2="450" y2="1280" stroke-width="0.5" stroke="rgb(238,238,238)" />
	<line x1="650" y1="1080" x2="450" y2="880" stroke-width="0.5" stroke="rgb(238,238,238)" />
	<line x1="650" y1="1080" x2="2550" y2="880" stroke-width="0.5" stroke="rgb(238,238,238)" />
	<line x1="650" y1="1080" x2="1011.8" y2="590.211" stroke-width="0.5" stroke="rgb(238,238,238)" />
	<line x1="650" y1="1080" x2="788.197" y2="517.557" stroke-width="0.5" stroke="rgb(238,238,238)" />
	<line x1="650" y1="1080" x2="788.197" y2="282.443" stroke-width="0.5" stroke="rgb(238,238,238)" />
	<line x1="650" y1="1080" x2="1850" y2="400" stroke-width="0.5" stroke="rgb(238,238,238)" />
	<line x1="650" y1="1080" x2="1988.2" y2="590.211" stroke-width="0.5" stroke="rgb(238,238,238)" />
	<line x1="650" y1="1080" x2="2211.8" y2="517.557" stroke-width="0.5" stroke="rgb(238,238,238)" />
	<line x1="650" y1="1080" x2="1988.2" y2="209.789" stroke-width="0.5" stroke="rgb(238,238,238)" />
	<line x1="650" y1="1080" x2="1108.2" y2="1317.56" stroke-width="0.5" stroke="rgb(238,238,238)" />
	<line x1="650" y1="1080" x2="1108.2" y2="1082.44" stroke-width="0.5" stroke="rgb(238,238,238)" />
	<line x1="650" y1="1080" x2="1331.8" y2="1009.79" stroke-width="0.5" stroke="rgb(238,238,238)" />
	<line x1="450" y1="1280" x2="300" y2="1380" stroke-width="0.5" stroke="rgb(238,238,238)" />
	<line x1="450" y1="1280" x2="1850" y2="400" stroke-width="0.5" stroke="rgb(238,238,238)" />
	<line x1="450" y1="1280" x2="1988.2" y2="590.211" stroke-width="0.5" stroke="rgb(238,238,238)" />
	<line x1="450" y1="1280" x2="2211.8" y2="517.557" stroke-width="0.5" stroke="rgb(238,238,238)" />
	<line x1="450" y1="1280" x2="1988.2" y2="209.789" stroke-width="0.5" stroke="rgb(238,238,238)" />
	<line x1="450" y1="1280" x2="1331.8" y2="1390.21" stroke-width="0.5" stroke="rgb(238,238,238)" />
	<line x1="450" y1="1280" x2="1108.2" y2="1317.56" stroke-width="0.5" stroke="rgb(238,238,238)" />
	<line x1="450" y1="1280" x2="1108.2" y2="1082.44" stroke-width="0.5" stroke="rgb(238,238,238)" />
	<line x1="450" y1="1280" x2="1331.8" y2="1009.79" stroke-width="0.5" stroke="rgb(238,238,238)" />
	<line x1="450" y1="880" x2="2350" y2="1080" stroke-width="0.5" stroke="rgb(238,238,238)" />
	<line x1="450" y1="880" x2="2550" y2="880" stroke-width="0.5" stroke="rgb(238,238,238)" />
	<line x1="450" y1="880" x2="300" y2="1020" stroke-width="0.5" stroke="rgb(238,238,238)" />
	<line x1="450" y1="880" x2="1011.8" y2="590.211" stroke-width="0.5" stroke="rgb(238,238,238)" />
	<line x1="450" y1="880" x2="788.197" y2="517.557" stroke-width="0.5" stroke="rgb(238,238,238)" />
	<line x1="450" y1="880" x2="1850" y2="400" stroke-width="0.5" stroke="rgb(238,238,238)" />
	<line x1="450" y1="880" x2="1988.2" y2="590.211" stroke-width="0.5" stroke="rgb(238,238,238)" />
	<line x1="450" y1="880" x2="1988.2" y2="209.789" stroke-width="0.5" stroke="rgb(238,238,238)" />
	<line x1="450" y1="880" x2="1108.2" y2="1317.56" stroke-width="0.5" stroke="rgb(238,238,238)" />
	<line x1="450" y1="880" x2="1108.2" y2="1082.44" stroke-width="0.5" stroke="rgb(238,238,238)" />
	<line x1="450" y1="880" x2="1331.8" y2="1009.79" stroke-width="0.5" stroke="rgb(238,238,238)" />
	<line x1="450" y1="880" x2="1668.2" y2="1009.79" stroke-width="0.5" stroke="rgb(238,238,238)" />
	<line x1="2550" y1="1280" x2="2350" y2="1080" stroke-width="0.5" stroke="rgb(238,238,238)" />
	<line x1="2550" y1="1280" x2="2700" y2="1380" stroke-width="0.5" stroke="rgb(238,238,238)" />
	<line x1="2550" y1="1280" x2="1150" y2="400" stroke-width="0.5" stroke="rgb(238,238,238)" />
	<line x1="2550" y1="1280" x2="1011.8" y2="590.211" stroke-width="0.5" stroke="rgb(238,238,238)" />
	<line x1="2550" y1="1280" x2="788.197" y2="517.557" stroke-width="0.5" stroke="rgb(238,238,238)" />
	<line x1="2550" y1="1280" x2="1011.8" y2="209.789" stroke-width="0.5" stroke="rgb(238,238,238)" />
	<line x1="2550" y1="1280" x2="1668.2" y2="1390.21" stroke-width="0.5" stroke="rgb(238,238,238)" />
	<line x1="2550" y1="1280" x2="1891.8" y2="1317.56" stroke-width="0.5" stroke="rgb(238,238,238)" />
	<line x1="2550" y1="1280" x2="1891.8" y2="1082.44" stroke-width="0.5" stroke="rgb(238,238,238)" />
	<line x1="2550" y1="1280" x2="1668.2" y2="1009.79" stroke-width="0.5" stroke="rgb(238,238,238)" />
	<line x1="2350" y1="1080" x2="2550" y2="880" stroke-width="0.5" stroke="rgb(238,238,238)" />
	<line x1="2350" y1="1080" x2="1150" y2="400" stroke-width="0.5" stroke="rgb(238,238,238)" />
	<line x1="2350" y1="1080" x2="1011.8" y2="590.211" stroke-width="0.5" stroke="rgb(238,238,238)" />
	<line x1="2350" y1="1080" x2="788.197" y2="517.557" stroke-width="0.5" stroke="rgb(238,238,238)" />
	<line x1="2350" y1="1080" x2="1011.8" y2="209.789" stroke-width="0.5" stroke="rgb(238,238,238)" />
	<line x1="2350" y1="1080" x2="1988.2" y2="590.211" stroke-width="0.5" stroke="rgb(238,238,238)" />
	<line x1="2350" y1="1080" x2="2211.8" y2="517.557" stroke-width="0.5" stroke="rgb(238,238,238)" />
	<line x1="2350" y1="1080" x2="2211.8" y2="282.443" stroke-width="0.5" stroke="rgb(238,238,238)" />
	<line x1="2350" y1="1080" x2="1891.8" y2="1317.56" stroke-width="0.5" stroke="rgb(238,238,238)" />
	<line x1="2350" y1="1080" x2="1891.8" y2="1082.44" stroke-width="0.5" stroke="rgb(238,238,238)" />
	<line x1="2350" y1="1080" x2="1668.2" y2="1009.79" stroke-width="0.5" stroke="rgb(238,238,238)" />
	<line x1="2550" y1="880" x2="2700" y2="1020" stroke-width="0.5" stroke="rgb(238,238,238)" />
	<line x1="2550" y1="880" x2="1150" y2="400" stroke-width="0.5" stroke="rgb(238,238,238)" />
	<line x1="2550" y1="880" x2="1011.8" y2="590.211" stroke-width="0.5" stroke="rgb(238,238,238)" />
	<line x1="2550" y1="880" x2="1011.8" y2="209.789" stroke-width="0.5" stroke="rgb(238,238,238)" />
	<line x1="2550" y1="880" x2="1988.2" y2="590.211" stroke-width="0.5" stroke="rgb(238,238,238)" />
	<line x1="2550" y1="880" x2="2211.8" y2="517.557" stroke-width="0.5" stroke="rgb(238,238,238)" />
	<line x1="2550" y1="880" x2="1331.8" y2="1009.79" stroke-width="0.5" stroke="rgb(238,238,238)" />
	<line x1="2550" y1="880" x2="1891.8" y2="1317.56" stroke-width="0.5" stroke="rgb(238,238,238)" />
	<line x1="2550" y1="880" x2="1891.8" y2="1082.44" stroke-width="0.5" stroke="rgb(238,238,238)" />
	<line x1="2550" y1="880" x2="1668.2" y2="1009.79" stroke-width="0.5" stroke="rgb(238,238,238)" />
	<line x1="300" y1="200" x2="2700" y2="200" stroke-width="0.5" stroke="rgb(238,238,238)" />
	<line x1="300" y1="200" x2="788.197" y2="282.443" stroke-width="0.5" stroke="rgb(238,238,238)" />
	<line x1="300" y1="200" x2="1011.8" y2="209.789" stroke-width="0.5" stroke="rgb(238,238,238)" />
	<line x1="300" y1="200" x2="1988.2" y2="209.789" stroke-width="0.5" stroke="rgb(238,238,238)" />
	<line x1="2700" y1="200" x2="1011.8" y2="209.789" stroke-width="0.5" stroke="rgb(238,238,238)" />
	<line x1="2700" y1="200" x2="2211.8" y2="282.443" stroke-width="0.5" stroke="rgb(238,238,238)" />
	<line x1="2700" y1="200" x2="1988.2" y2="209.789" stroke-width="0.5" stroke="rgb(238,238,238)" />
	<line x1="300" y1="1380" x2="1850" y2="400" stroke-width="0.5" stroke="rgb(238,238,238)" />
	<line x1="300" y1="1380" x2="1988.2" y2="590.211" stroke-width="0.5" stroke="rgb(238,238,238)" />
	<line x1="300" y1="1380" x2="2211.8" y2="517.557" stroke-width="0.5" stroke="rgb(238,238,238)" />
	<line x1="300" y1="1380" x2="1331.8" y2="1390.21" stroke-width="0.5" stroke="rgb(238,238,238)" />
	<line x1="300" y1="1380" x2="1108.2" y2="1317.56" stroke-width="0.5" stroke="rgb(238,238,238)" />
	<line x1="300" y1="1380" x2="1108.2" y2="1082.44" stroke-width="0.5" stroke="rgb(238,238,238)" />
	<line x1="300" y1="1020" x2="788.197" y2="517.557" stroke-width="0.5" stroke="rgb(238,238,238)" />
	<line x1="2700" y1="1380" x2="1150" y2="400" stroke-width="0.5" stroke="rgb(238,238,238)" />
	<line x1="2700" y1="1380" x2="1011.8" y2="590.211" stroke-width="0.5" stroke="rgb(238,238,238)" />
	<line x1="2700" y1="1380" x2="788.197" y2="517.557" stroke-width="0.5" stroke="rgb(238,238,238)" />
	<line x1="2700" y1="1380" x2="1668.2" y2="1390.21" stroke-width="0.5" stroke="rgb(238,238,238)" />
	<line x1="2700" y1="1380" x2="1891.8" y2="1317.56" stroke-width="0.5" stroke="rgb(238,238,238)" />
	<line x1="2700" y1="1380" x2="1891.8" y2="1082.44" stroke-width="0.5" stroke="rgb(238,238,238)" />
	<line x1="2700" y1="1020" x2="2211.8" y2="517.557" stroke-width="0.5" stroke="rgb(238,238,238)" />
	<line x1="1150" y1="400" x2="1011.8" y2="590.211" stroke-width="0.5" stroke="rgb(238,238,238)" />
	<line x1="1150" y1="400" x2="1011.8" y2="209.789" stroke-width="0.5" stroke="rgb(238,238,238)" />
	<line x1="1150" y1="400" x2="1850" y2="400" stroke-width="0.5" stroke="rgb(238,238,238)" />
	<line x1="1150" y1="400" x2="1988.2" y2="590.211" stroke-width="0.5" stroke="rgb(238,238,238)" />
	<line x1="1150" y1="400" x2="1988.2" y2="209.789" stroke-width="0.5" stroke="rgb(238,238,238)" />
	<line x1="1150" y1="400" x2="1470" y2="1200" stroke-width="0.5" stroke="rgb(238,238,238)" />
	<line x1="1150" y1="400" x2="1108.2" y2="1082.44" stroke-width="0.5" stroke="rgb(238,238,238)" />
	<line x1="1150" y1="400" x2="1331.8" y2="1009.79" stroke-width="0.5" stroke="rgb(238,238,238)" />
	<line x1="1150" y1="400" x2="1530" y2="1200" stroke-width="0.5" stroke="rgb(238,238,238)" />
	<line x1="1150" y1="400" x2="1891.8" y2="1082.44" stroke-width="0.5" stroke="rgb(238,238,238)" />
	<line x1="1150" y1="400" x2="1668.2" y2="1009.79" stroke-width="0.5" stroke="rgb(238,238,238)" />
	<line x1="1011.8" y1="590.211" x2="788.197" y2="517.557" stroke-width="0.5" stroke="rgb(238,238,238)" />
	<line x1="1011.8" y1="590.211" x2="1850" y2="400" stroke-width="0.5" stroke="rgb(238,238,238)" />
	<line x1="1011.8" y1="590.211" x2="1988.2" y2="590.211" stroke-width="0.5" stroke="rgb(238,238,238)" />
	<line x1="1011.8" y1="590.211" x2="1988.2" y2="209.789" stroke-width="0.5" stroke="rgb(238,238,238)" />
	<line x1="1011.8" y1="590.211" x2="1108.2" y2="1317.56" stroke-width="0.5" stroke="rgb(238,238,238)" />
	<line x1="1011.8" y1="590.211" x2="1108.2" y2="1082.44" stroke-width="0.5" stroke="rgb(238,238,238)" />
	<line x1="1011.8" y1="590.211" x2="1331.8" y2="1009.79" stroke-width="0.5" stroke="rgb(238,238,238)" />
	<line x1="1011.8" y1="590.211" x2="1530" y2="1200" stroke-width="0.5" stroke="rgb(238,238,238)" />
	<line x1="1011.8" y1="590.211" x2="1668.2" y2="1390.21" stroke-width="0.5" stroke="rgb(238,238,238)" />
	<line x1="1011.8" y1="590.211" x2="1891.8" y2="1082.44" stroke-width="0.5" stroke="rgb(238,238,238)" />
	<line x1="1011.8" y1="590.211" x2="1668.2" y2="1009.79" stroke-width="0.5" stroke="rgb(238,238,238)" />
	<line x1="788.197" y1="517.557" x2="788.197" y2="282.443" stroke-width="0.5" stroke="rgb(238,238,238)" />
	<line x1="788.197" y1="517.557" x2="1108.2" y2="1317.56" stroke-width="0.5" stroke="rgb(238,238,238)" />
	<line x1="788.197" y1="517.557" x2="1108.2" y2="1082.44" stroke-width="0.5" stroke="rgb(238,238,238)" />
	<line x1="788.197" y1="517.557" x2="1331.8" y2="1009.79" stroke-width="0.5" stroke="rgb(238,238,238)" />
	<line x1="788.197" y1="517.557" x2="1891.8" y2="1082.44" stroke-width="0.5" stroke="rgb(238,238,238)" />
	<line x1="788.197" y1="517.557" x2="1668.2" y2="1009.79" stroke-width="0.5" stroke="rgb(238,238,238)" />
	<line x1="788.197" y1="282.443" x2="1011.8" y2="209.789" stroke-width="0.5" stroke="rgb(238,238,238)" />
	<line x1="1011.8" y1="209.789" x2="1850" y2="400" stroke-width="0.5" stroke="rgb(238,238,238)" />
	<line x1="1011.8" y1="209.789" x2="1988.2" y2="590.211" stroke-width="0.5" stroke="rgb(238,238,238)" />
	<line x1="1011.8" y1="209.789" x2="1988.2" y2="209.789" stroke-width="0.5" stroke="rgb(238,238,238)" />
	<line x1="1011.8" y1="209.789" x2="1891.8" y2="1082.44" stroke-width="0.5" stroke="rgb(238,238,238)" />
	<line x1="1011.8" y1="209.789" x2="1668.2" y2="1009.79" stroke-width="0.5" stroke="rgb(238,238,238)" />
	<line x1="1850" y1="400" x2="1988.2" y2="590.211" stroke-width="0.5" stroke="rgb(238,238,238)" />
	<line x1="1850" y1="400" x2="1988.2" y2="209.789" stroke-width="0.5" stroke="rgb(238,238,238)" />
	<line x1="1850" y1="400" x2="1470" y2="1200" stroke-width="0.5" stroke="rgb(238,238,238)" />
	<line x1="1850" y1="400" x2="1108.2" y2="1082.44" stroke-width="0.5" stroke="rgb(238,238,238)" />
	<line x1="1850" y1="400" x2="1331.8" y2="1009.79" stroke-width="0.5" stroke="rgb(238,238,238)" />
	<line x1="1850" y1="400" x2="1530" y2="1200" stroke-width="0.5" stroke="rgb(238,238,238)" />
	<line x1="1850" y1="400" x2="1891.8" y2="1082.44" stroke-width="0.5" stroke="rgb(238,238,238)" />
	<line x1="1850" y1="400" x2="1668.2" y2="1009.79" stroke-width="0.5" stroke="rgb(238,238,238)" />
	<line x1="1988.2" y1="590.211" x2="2211.8" y2="517.557" stroke-width="0.5" stroke="rgb(238,238,238)" />
	<line x1="1988.2" y1="590.211" x2="1470" y2="1200" stroke-width="0.5" stroke="rgb(238,238,238)" />
	<line x1="1988.2" y1="590.211" x2="1331.8" y2="1390.21" stroke-width="0.5" stroke="rgb(238,238,238)" />
	<line x1="1988.2" y1="590.211" x2="1108.2" y2="1082.44" stroke-width="0.5" stroke="rgb(238,238,238)" />
	<line x1="1988.2" y1="590.211" x2="1331.8" y2="1009.79" stroke-width="0.5" stroke="rgb(238,238,238)" />
	<line x1="1988.2" y1="590.211" x2="1891.8" y2="1317.56" stroke-width="0.5" stroke="rgb(238,238,238)" />
	<line x1="1988.2" y1="590.211" x2="1891.8" y2="1082.44" stroke-width="0.5" stroke="rgb(238,238,238)" />
	<line x1="1988.2" y1="590.211" x2="1668.2" y2="1009.79" stroke-width="0.5" stroke="rgb(238,238,238)" />
	<line x1="2211.8" y1="517.557" x2="2211.8" y2="282.443" stroke-width="0.5" stroke="rgb(238,238,238)" />
	<line x1="2211.8" y1="517.557" x2="1108.2" y2="1082.44" stroke-width="0.5" stroke="rgb(238,238,238)" />
	<line x1="2211.8" y1="517.557" x2="1331.8" y2="1009.79" stroke-width="0.5" stroke="rgb(238,238,238)" />
	<line x1="2211.8" y1="517.557" x2="1891.8" y2="1317.56" stroke-width="0.5" stroke="rgb(238,238,238)" />
	<line x1="2211.8" y1="517.557" x2="1891.8" y2="1082.44" stroke-width="0.5" stroke="rgb(238,238,238)" />
	<line x1="2211.8" y1="517.557" x2="1668.2" y2="1009.79" stroke-width="0.5" stroke="rgb(238,238,238)" />
	<line x1="2211.8" y1="282.443" x2="1988.2" y2="209.789" stroke-width="0.5" stroke="rgb(238,238,238)" />
	<line x1="1988.2" y1="209.789" x2="1108.2" y2="1082.44" stroke-width="0.5" stroke="rgb(238,238,238)" />
	<line x1="1988.2" y1="209.789" x2="1331.8" y2="1009.79" stroke-width="0.5" stroke="rgb(238,238,238)" />
	<line x1="1470" y1="1200" x2="1331.8" y2="1390.21" stroke-width="0.5" stroke="rgb(238,238,238)" />
	<line x1="1470" y1="1200" x2="1331.8" y2="1009.79" stroke-width="0.5" stroke="rgb(238,238,238)" />
	<line x1="1470" y1="1200" x2="1530" y2="1200" stroke-width="0.5" stroke="rgb(238,238,238)" />
	<line x1="1470" y1="1200" x2="1668.2" y2="1390.21" stroke-width="0.5" stroke="rgb(238,238,238)" />
	<line x1="1470" y1="1200" x2="1668.2" y2="1009.79" stroke-width="0.5" stroke="rgb(238,238,238)" />
	<line x1="1331.8" y1="1390.21" x2="1108.2" y2="1317.56" stroke-width="0.5" stroke="rgb(238,238,238)" />
	<line x1="1331.8" y1="1390.21" x2="1530" y2="1200" stroke-width="0.5" stroke="rgb(238,238,238)" />
	<line x1="1331.8" y1="1390.21" x2="1668.2" y2="1390.21" stroke-width="0.5" stroke="rgb(238,238,238)" />
	<line x1="1331.8" y1="1390.21" x2="1668.2" y2="1009.79" stroke-width="0.5" stroke="rgb(238,238,238)" />
	<line x1="1108.2" y1="1317.56" x2="1108.2" y2="1082.44" stroke-width="0.5" stroke="rgb(238,238,238)" />
	<line x1="1108.2" y1="1082.44" x2="1331.8" y2="1009.79" stroke-width="0.5" stroke="rgb(238,238,238)" />
	<line x1="1331.8" y1="1009.79" x2="1530" y2="1200" stroke-width="0.5" stroke="rgb(238,238,238)" />
	<line x1="1331.8" y1="1009.79" x2="1668.2" y2="1390.21" stroke-width="0.5" stroke="rgb(238,238,238)" />
	<line x1="1331.8" y1="1009.79" x2="1668.2" y2="1009.79" stroke-width="0.5" stroke="rgb(238,238,238)" />
	<line x1="1530" y1="1200" x2="1668.2" y2="1390.21" stroke-width="0.5" stroke="rgb(238,238,238)" />
	<line x1="1530" y1="1200" x2="1668.2" y2="1009.79" stroke-width="0.5" stroke="rgb(238,238,238)" />
	<line x1="1668.2" y1="1390.21" x2="1891.8" y2="1317.56" stroke-width="0.5" stroke="rgb(238,238,238)" />
	<line x1="1891.8" y1="1317.56" x2="1891.8" y2="1082.44" stroke-width="0.5" stroke="rgb(238,238,238)" />
	<line x1="1891.8" y1="1082.44" x2="1668.2" y2="1009.79" stroke-width="0.5" stroke="rgb(238,238,238)" />
</g>
</svg>

