<?xml version="1.0" standalone="no" ?>
<!DOCTYPE svg PUBLIC "-//W3C//DTD SVG 1.1//EN" "http://www.w3.org/Graphics/SVG/1.1/DTD/svg11.dtd">
<svg width="3400px" height="2500px" xmlns="http://www.w3.org/2000/svg" version="1.1" >
	<g transform="translate(200,2200) scale(1,-1)" >
	<polygon points="0,0 3400,0 3400,2500 0,2500 " fill="rgb(255,255,255)" stroke-width="5" stroke="rgb(255,0,0)" />
	<polygon points="0,0 129,0 129,2000 0,2000 " fill="rgb(0,255,255)" stroke-width="0" stroke="rgb(0,255,255)" />
	<polygon points="3000,0 2871,0 2871,2000 3000,2000 " fill="rgb(0,255,255)" stroke-width="0" stroke="rgb(0,255,255)" />
	<polygon points="0,0 3000,0 3000,129 0,129 " fill="rgb(0,255,255)" stroke-width="0" stroke="rgb(0,255,255)" />
	<polygon points="0,1871 3000,1871 3000,3871 0,3871 " fill="rgb(0,255,255)" stroke-width="0" stroke="rgb(0,255,255)" />
	<polygon points="40.901,571.231 571.231,40.901 359.099,-171.231 -171.231,359.099 " fill="rgb(0,255,255)" stroke-width="0" stroke="rgb(0,255,255)" />
	<polygon points="3171.23,359.099 2640.9,-171.231 2428.77,40.901 2959.1,571.231 " fill="rgb(0,255,255)" stroke-width="0" stroke="rgb(0,255,255)" />
	<polygon points="700,350 1250,350 1250,900 700,900 " fill="rgb(0,255,255)" stroke-width="0" stroke="rgb(0,255,255)" />
	<polygon points="2300,350 1750,350 1750,900 2300,900 " fill="rgb(0,255,255)" stroke-width="0" stroke="rgb(0,255,255)" />
	<polygon points="1350,1112.13 1562.13,900 1350,687.868 1137.87,900 " fill="rgb(0,255,255)" stroke-width="0" stroke="rgb(0,255,255)" />
	<polygon points="1862.13,900 1650,687.868 1437.87,900 1650,1112.13 " fill="rgb(0,255,255)" stroke-width="0" stroke="rgb(0,255,255)" />
	<polygon points="200,900 200,600 0,600 0,900 " fill="rgb(0,255,255)" stroke-width="0" stroke="rgb(0,255,255)" />
	<polygon points="3000,900 3000,600 2800,600 2800,900 " fill="rgb(0,255,255)" stroke-width="0" stroke="rgb(0,255,255)" />
	<polygon points="400,1800 1500,1800 1500,2000 400,2000 " fill="rgb(0,255,255)" stroke-width="0" stroke="rgb(0,255,255)" />
	<polygon points="2600,1800 1500,1800 1500,2000 2600,2000 " fill="rgb(0,255,255)" stroke-width="0" stroke="rgb(0,255,255)" />
	<polygon points="1630,2125 1630,1575 1370,1575 1370,2125 " fill="rgb(0,255,255)" stroke-width="0" stroke="rgb(0,255,255)" />
	<polygon points="250,-100 147.487,147.487 -100,250 -347.487,147.487 -450,-100 -347.487,-347.487 -100,-450 147.487,-347.487 " fill="rgb(0,255,255)" stroke-width="0" stroke="rgb(0,255,255)" />
	<polygon points="250,-100 147.487,147.487 -100,250 -347.487,147.487 -450,-100 -347.487,-347.487 -100,-450 147.487,-347.487 " fill="rgb(0,255,255)" stroke-width="0" stroke="rgb(0,255,255)" />
	<polygon points="250,-100 147.487,147.487 -100,250 -347.487,147.487 -450,-100 -347.487,-347.487 -100,-450 147.487,-347.487 " fill="rgb(0,255,255)" stroke-width="0" stroke="rgb(0,255,255)" />
	<polygon points="250,-100 147.487,147.487 -100,250 -347.487,147.487 -450,-100 -347.487,-347.487 -100,-450 147.487,-347.487 " fill="rgb(0,255,255)" stroke-width="0" stroke="rgb(0,255,255)" />
	<line x1="0" y1="2000" x2="0" y2="1871" stroke-width="0.5" stroke="rgb(238,238,238)" />
	<line x1="3000" y1="0" x2="3000" y2="0" stroke-width="0.5" stroke="rgb(238,238,238)" />
	<line x1="3000" y1="2000" x2="3000" y2="1871" stroke-width="0.5" stroke="rgb(238,238,238)" />
	<line x1="700" y1="350" x2="1250" y2="350" stroke-width="0.5" stroke="rgb(238,238,238)" />
	<line x1="700" y1="350" x2="700" y2="900" stroke-width="0.5" stroke="rgb(238,238,238)" />
	<line x1="700" y1="350" x2="200" y2="900" stroke-width="0.5" stroke="rgb(238,238,238)" />
	<line x1="700" y1="350" x2="200" y2="600" stroke-width="0.5" stroke="rgb(238,238,238)" />
	<line x1="700" y1="350" x2="400" y2="1800" stroke-width="0.5" stroke="rgb(238,238,238)" />
	<line x1="1250" y1="350" x2="1750" y2="350" stroke-width="0.5" stroke="rgb(238,238,238)" />
	<line x1="1250" y1="350" x2="1350" y2="687.868" stroke-width="0.5" stroke="rgb(238,238,238)" />
	<line x1="1250" y1="350" x2="1650" y2="687.868" stroke-width="0.5" stroke="rgb(238,238,238)" />
	<line x1="700" y1="900" x2="1350" y2="1112.13" stroke-width="0.5" stroke="rgb(238,238,238)" />
	<line x1="700" y1="900" x2="1137.87" y2="900" stroke-width="0.5" stroke="rgb(238,238,238)" />
	<line x1="700" y1="900" x2="200" y2="900" stroke-width="0.5" stroke="rgb(238,238,238)" />
	<line x1="700" y1="900" x2="200" y2="600" stroke-width="0.5" stroke="rgb(238,238,238)" />
	<line x1="700" y1="900" x2="400" y2="1800" stroke-width="0.5" stroke="rgb(238,238,238)" />
	<line x1="700" y1="900" x2="2600" y2="1800" stroke-width="0.5" stroke="rgb(238,238,238)" />
	<line x1="700" y1="900" x2="1630" y2="1575" stroke-width="0.5" stroke="rgb(238,238,238)" />
	<line x1="700" y1="900" x2="1370" y2="1575" stroke-width="0.5" stroke="rgb(238,238,238)" />
	<line x1="2300" y1="350" x2="1750" y2="350" stroke-width="0.5" stroke="rgb(238,238,238)" />
	<line x1="2300" y1="350" x2="2300" y2="900" stroke-width="0.5" stroke="rgb(238,238,238)" />
	<line x1="2300" y1="350" x2="2800" y2="600" stroke-width="0.5" stroke="rgb(238,238,238)" />
	<line x1="2300" y1="350" x2="2800" y2="900" stroke-width="0.5" stroke="rgb(238,238,238)" />
	<line x1="2300" y1="350" x2="2600" y2="1800" stroke-width="0.5" stroke="rgb(238,238,238)" />
	<line x1="1750" y1="350" x2="1350" y2="687.868" stroke-width="0.5" stroke="rgb(238,238,238)" />
	<line x1="1750" y1="350" x2="1650" y2="687.868" stroke-width="0.5" stroke="rgb(238,238,238)" />
	<line x1="2300" y1="900" x2="1862.13" y2="900" stroke-width="0.5" stroke="rgb(238,238,238)" />
	<line x1="2300" y1="900" x2="1650" y2="1112.13" stroke-width="0.5" stroke="rgb(238,238,238)" />
	<line x1="2300" y1="900" x2="2800" y2="600" stroke-width="0.5" stroke="rgb(238,238,238)" />
	<line x1="2300" y1="900" x2="2800" y2="900" stroke-width="0.5" stroke="rgb(238,238,238)" />
	<line x1="2300" y1="900" x2="400" y2="1800" stroke-width="0.5" stroke="rgb(238,238,238)" />
	<line x1="2300" y1="900" x2="2600" y2="1800" stroke-width="0.5" stroke="rgb(238,238,238)" />
	<line x1="2300" y1="900" x2="1630" y2="1575" stroke-width="0.5" stroke="rgb(238,238,238)" />
	<line x1="2300" y1="900" x2="1370" y2="1575" stroke-width="0.5" stroke="rgb(238,238,238)" />
	<line x1="1350" y1="1112.13" x2="1650" y2="1112.13" stroke-width="0.5" stroke="rgb(238,238,238)" />
	<line x1="1350" y1="1112.13" x2="200" y2="900" stroke-width="0.5" stroke="rgb(238,238,238)" />
	<line x1="1350" y1="1112.13" x2="400" y2="1800" stroke-width="0.5" stroke="rgb(238,238,238)" />
	<line x1="1350" y1="1112.13" x2="2600" y2="1800" stroke-width="0.5" stroke="rgb(238,238,238)" />
	<line x1="1350" y1="1112.13" x2="1630" y2="1575" stroke-width="0.5" stroke="rgb(238,238,238)" />
	<line x1="1350" y1="1112.13" x2="1370" y2="1575" stroke-width="0.5" stroke="rgb(238,238,238)" />
	<line x1="1350" y1="687.868" x2="1650" y2="687.868" stroke-width="0.5" stroke="rgb(238,238,238)" />
	<line x1="1650" y1="1112.13" x2="2800" y2="900" stroke-width="0.5" stroke="rgb(238,238,238)" />
	<line x1="1650" y1="1112.13" x2="400" y2="1800" stroke-width="0.5" stroke="rgb(238,238,238)" />
	<line x1="1650" y1="1112.13" x2="2600" y2="1800" stroke-width="0.5" stroke="rgb(238,238,238)" />
	<line x1="1650" y1="1112.13" x2="1630" y2="1575" stroke-width="0.5" stroke="rgb(238,238,238)" />
	<line x1="1650" y1="1112.13" x2="1370" y2="1575" stroke-width="0.5" stroke="rgb(238,238,238)" />
	<line x1="200" y1="900" x2="200" y2="600" stroke-width="0.5" stroke="rgb(238,238,238)" />
	<line x1="200" y1="900" x2="400" y2="1800" stroke-width="0.5" stroke="rgb(238,238,238)" />
	<line x1="200" y1="900" x2="2600" y2="1800" stroke-width="0.5" stroke="rgb(238,238,238)" />
	<line x1="200" y1="900" x2="1630" y2="1575" stroke-width="0.5" stroke="rgb(238,238,238)" />
	<line x1="200" y1="900" x2="1370" y2="1575" stroke-width="0.5" stroke="rgb(238,238,238)" />
	<line x1="200" y1="600" x2="400" y2="1800" stroke-width="0.5" stroke="rgb(238,238,238)" />
	<line x1="200" y1="600" x2="1630" y2="1575" stroke-width="0.5" stroke="rgb(238,238,238)" />
	<line x1="200" y1="600" x2="1370" y2="1575" stroke-width="0.5" stroke="rgb(238,238,238)" />
	<line x1="2800" y1="600" x2="2800" y2="900" stroke-width="0.5" stroke="rgb(238,238,238)" />
	<line x1="2800" y1="600" x2="2600" y2="1800" stroke-width="0.5" stroke="rgb(238,238,238)" />
	<line x1="2800" y1="600" x2="1630" y2="1575" stroke-width="0.5" stroke="rgb(238,238,238)" />
	<line x1="2800" y1="600" x2="1370" y2="1575" stroke-width="0.5" stroke="rgb(238,238,238)" />
	<line x1="2800" y1="900" x2="400" y2="1800" stroke-width="0.5" stroke="rgb(238,238,238)" />
	<line x1="2800" y1="900" x2="2600" y2="1800" stroke-width="0.5" stroke="rgb(238,238,238)" />
	<line x1="2800" y1="900" x2="1630" y2="1575" stroke-width="0.5" stroke="rgb(238,238,238)" />
	<line x1="2800" y1="900" x2="1370" y2="1575" stroke-width="0.5" stroke="rgb(238,238,238)" />
	<line x1="400" y1="1800" x2="1370" y2="1575" stroke-width="0.5" stroke="rgb(238,238,238)" />
	<line x1="2600" y1="1800" x2="1630" y2="1575" stroke-width="0.5" stroke="rgb(238,238,238)" />
	<line x1="1630" y1="1575" x2="1370" y2="1575" stroke-width="0.5" stroke="rgb(238,238,238)" />
</g>
</svg>

