<?xml version="1.0" encoding="UTF-8" standalone="no"?>
<!-- Created with Inkscape (http://www.inkscape.org/) -->

<svg
   xmlns:dc="http://purl.org/dc/elements/1.1/"
   xmlns:cc="http://creativecommons.org/ns#"
   xmlns:rdf="http://www.w3.org/1999/02/22-rdf-syntax-ns#"
   xmlns:svg="http://www.w3.org/2000/svg"
   xmlns="http://www.w3.org/2000/svg"
   version="1.1"
   width="16"
   height="16"
   id="svg3859">
  <defs
     id="defs3861" />
  <metadata
     id="metadata3864">
    <rdf:RDF>
      <cc:Work
         rdf:about="">
        <dc:format>image/svg+xml</dc:format>
        <dc:type
           rdf:resource="http://purl.org/dc/dcmitype/StillImage" />
        <dc:title></dc:title>
      </cc:Work>
    </rdf:RDF>
  </metadata>
  <g
     id="layer1">
    <g
       transform="matrix(1.5923241,0,0,1.5908834,-108.69308,-177.58911)"
       id="layer1-9"
       style="fill:none">
      <path
         d=""
         id="path3027"
         style="fill:none;stroke-width:2;stroke-miterlimit:4;stroke-dasharray:none" />
      <path
         d=""
         id="path3029"
         style="fill:none;stroke-width:2;stroke-miterlimit:4;stroke-dasharray:none" />
      <path
         d=""
         id="path3033"
         style="fill:none;stroke-width:2;stroke-miterlimit:4;stroke-dasharray:none" />
      <path
         d="m 74.349103,119.00565 a 2.0680213,2.111624 0 1 1 -4.136042,0 2.0680213,2.111624 0 1 1 4.136042,0 z"
         transform="matrix(2.4177701,0,0,2.3678458,-101.47654,-165.13257)"
         id="path3035"
         style="fill:none;stroke-width:2;stroke-miterlimit:4;stroke-dasharray:none" />
    </g>
    <path
       d="M 7.6397074,15.933348 C 5.2548305,15.791603 2.9574632,14.458202 1.486374,12.361801 0.74121965,11.29995 0.29138391,10.170771 0.10345069,8.8902949 0.0485116,8.5159969 0.04894209,7.4742829 0.10419199,7.0966409 0.35593981,5.3758114 1.118344,3.8514016 2.3749379,2.5564411 3.5552763,1.340033 5.0726799,0.49131712 6.6038073,0.19111472 c 0.5484128,-0.107522 0.7733728,-0.1283738 1.3904664,-0.1287717 0.5865811,-3.183e-4 0.7380605,0.0119378 1.2356084,0.0986879 1.0681159,0.1866317 2.1715879,0.6523748 3.1330929,1.32217918 0.592331,0.4127383 1.36012,1.1314888 1.797173,1.6823901 0.77621,0.9785225 1.301563,2.0235 1.571271,3.1254617 0.151319,0.618312 0.206015,1.071559 0.206082,1.707778 8.6e-5,0.818394 -0.109964,1.484617 -0.377635,2.2860581 -0.997136,2.985548 -3.825486,5.308056 -6.8409289,5.617412 -0.2491803,0.02546 -0.8706681,0.04378 -1.0792297,0.03103 z"
       id="path3838"
       style="fill:none;stroke:#000000;stroke-width:0.02148491;stroke-miterlimit:4;stroke-opacity:0.19607843;stroke-dasharray:none" />
    <path
       d="M 7.3918317,15.888469 C 6.9990833,15.853406 6.2108003,15.682193 5.7556314,15.53309 3.3385541,14.741315 1.2741891,12.692727 0.47543586,10.29325 0.18594332,9.4236067 0.10965833,8.9485133 0.10869507,8.0092347 0.10774434,7.0821609 0.18800789,6.5667896 0.46233555,5.7385148 1.4217752,2.8416877 4.1022359,0.56560713 7.0446018,0.14926372 7.6604348,0.06212361 8.9548914,0.11843286 9.5316832,0.25745254 11.09304,0.63377433 12.345268,1.3433202 13.519277,2.5169312 c 1.672044,1.6714774 2.508618,3.7933596 2.359739,5.9852338 -0.0441,0.6493175 -0.134425,1.1084039 -0.341745,1.737031 -0.881514,2.672899 -3.279057,4.877812 -5.9605383,5.48164 -0.6964753,0.156835 -1.5620195,0.223243 -2.184901,0.167633 z"
       id="path3930"
       style="fill:none;stroke:#000000;stroke-width:0.04504951;stroke-miterlimit:4;stroke-opacity:0.19607843;stroke-dasharray:none" />
    <path
       d="M 7.2116337,15.823873 C 6.8414862,15.777645 5.7875233,15.512599 5.4321782,15.376383 4.3081669,14.945511 2.9907003,14.035796 2.230788,13.165814 1.2331877,12.023716 0.68573479,11.008788 0.32781945,9.6378829 0.18839276,9.103844 0.18599065,9.0768868 0.18508231,8.0360396 0.18433546,7.1802531 0.19971415,6.9066282 0.26533223,6.6081955 0.5963576,5.102683 1.3612206,3.7141651 2.4900192,2.5695407 3.6560127,1.3872 5.069873,0.60144973 6.6485148,0.25846431 7.1689745,0.1453861 8.6787208,0.14602641 9.2986763,0.25958831 10.856859,0.54501222 12.426185,1.4289858 13.621224,2.6944032 c 1.084076,1.1479192 1.73181,2.3395139 2.071037,3.8099532 0.109001,0.4724837 0.119708,0.6032944 0.121673,1.4866337 0.0026,1.1700028 -0.07075,1.5977631 -0.442586,2.5808749 -0.740161,1.956952 -2.451862,3.757968 -4.40486,4.6347 -1.165643,0.523276 -2.6084665,0.76048 -3.7548543,0.617308 l 0,0 z"
       id="path4021"
       style="fill:none;stroke:#000000;stroke-width:0.04504951;stroke-miterlimit:4;stroke-opacity:0.19607843;stroke-dasharray:none" />
    <path
       d="M 7.2515462,15.782243 C 6.8524981,15.730178 6.0103039,15.523329 5.5673267,15.368586 4.5397119,15.009613 3.3480443,14.236852 2.517099,13.390603 1.4251745,12.278567 0.72871053,11.051165 0.36489206,9.5976942 0.24782005,9.1299862 0.24279862,9.0622367 0.24468936,7.975912 0.24655224,6.9055862 0.2531581,6.8173924 0.36288861,6.3978477 0.80374931,4.7122569 1.7255734,3.2417347 3.0491007,2.1127192 4.3653742,0.98989134 5.8477401,0.33886621 7.3017327,0.24504914 9.0026114,0.13530206 10.252091,0.40412808 11.591437,1.1679803 c 1.858045,1.0596761 3.238483,2.7205152 3.855053,4.6381088 0.265694,0.8263372 0.305967,1.104713 0.307147,2.1230642 0.0014,1.1830739 -0.03106,1.4353039 -0.285959,2.2242127 -0.758466,2.347411 -2.79378,4.434618 -5.11082,5.241127 -1.0177678,0.354262 -2.2156021,0.503831 -3.1053118,0.38775 z"
       id="path4023"
       style="fill:none;stroke:#000000;stroke-width:0.04504951;stroke-miterlimit:4;stroke-opacity:0.19607843;stroke-dasharray:none" />
    <path
       d="M 7.4233663,15.75836 C 7.3614233,15.747412 7.1891089,15.717458 7.0404455,15.691795 6.5524409,15.607555 5.56079,15.323897 5.1934158,15.163461 2.8303028,14.131459 1.0384617,12.03997 0.41634901,9.5875288 0.31277341,9.1792217 0.30558793,9.0754209 0.30621037,7.9964762 0.30669496,7.1564786 0.3243407,6.7686375 0.37102343,6.5719307 0.61777381,5.5321985 1.1578448,4.382413 1.8043585,3.5204289 2.968863,1.9678176 4.7238761,0.80083893 6.4998515,0.39820698 6.9286863,0.3009857 8.4429695,0.2590806 8.9790307,0.32960009 9.7620375,0.43260555 10.453772,0.64659312 11.165535,1.0059938 c 2.045848,1.0330384 3.558005,2.7673405 4.244177,4.8676695 0.250452,0.7666214 0.280239,0.9940642 0.280239,2.1398516 0,1.1548062 -0.03176,1.4000129 -0.276602,2.1354051 -0.931115,2.796665 -3.430725,4.986828 -6.2781015,5.500885 -0.4615204,0.08332 -1.4867895,0.148336 -1.7118812,0.108555 l 0,0 z"
       id="path4533"
       style="fill:#d40000;stroke:#000000;stroke-width:0.04504951;stroke-miterlimit:4;stroke-opacity:0.19607843;stroke-dasharray:none" />
  </g>
</svg>
