<?xml version="1.0" encoding="UTF-8" standalone="no"?>
<!-- Created with Inkscape (http://www.inkscape.org/) -->

<svg
   xmlns:dc="http://purl.org/dc/elements/1.1/"
   xmlns:cc="http://creativecommons.org/ns#"
   xmlns:rdf="http://www.w3.org/1999/02/22-rdf-syntax-ns#"
   xmlns:svg="http://www.w3.org/2000/svg"
   xmlns="http://www.w3.org/2000/svg"
   version="1.1"
   width="16"
   height="16"
   id="svg3859">
  <defs
     id="defs3861" />
  <metadata
     id="metadata3864">
    <rdf:RDF>
      <cc:Work
         rdf:about="">
        <dc:format>image/svg+xml</dc:format>
        <dc:type
           rdf:resource="http://purl.org/dc/dcmitype/StillImage" />
        <dc:title></dc:title>
      </cc:Work>
    </rdf:RDF>
  </metadata>
  <g
     id="layer1">
    <g
       transform="matrix(1.5923241,0,0,1.5908834,-108.69308,-177.58911)"
       id="layer1-9">
      <path
         d=""
         id="path3027"
         style="fill:#008000;stroke-width:2;stroke-miterlimit:4;stroke-dasharray:none" />
      <path
         d=""
         id="path3029"
         style="fill:#008000;stroke-width:2;stroke-miterlimit:4;stroke-dasharray:none" />
      <path
         d=""
         id="path3033"
         style="fill:#008000;stroke-width:2;stroke-miterlimit:4;stroke-dasharray:none" />
      <path
         d="m 74.349103,119.00565 a 2.0680213,2.111624 0 1 1 -4.136042,0 2.0680213,2.111624 0 1 1 4.136042,0 z"
         transform="matrix(2.4177701,0,0,2.3678458,-101.47654,-165.13257)"
         id="path3035"
         style="fill:#008000;stroke-width:2;stroke-miterlimit:4;stroke-dasharray:none" />
    </g>
    <path
       d="M 7.6397074,15.933348 C 5.2548305,15.791603 2.9574632,14.458202 1.486374,12.361801 0.74121965,11.29995 0.29138391,10.170771 0.10345069,8.8902949 0.0485116,8.5159969 0.04894209,7.4742829 0.10419199,7.0966409 0.35593981,5.3758114 1.118344,3.8514016 2.3749379,2.5564411 3.5552763,1.340033 5.0726799,0.49131712 6.6038073,0.19111472 c 0.5484128,-0.107522 0.7733728,-0.1283738 1.3904664,-0.1287717 0.5865811,-3.183e-4 0.7380605,0.0119378 1.2356084,0.0986879 1.0681159,0.1866317 2.1715879,0.6523748 3.1330929,1.32217918 0.592331,0.4127383 1.36012,1.1314888 1.797173,1.6823901 0.77621,0.9785225 1.301563,2.0235 1.571271,3.1254617 0.151319,0.618312 0.206015,1.071559 0.206082,1.707778 8.6e-5,0.818394 -0.109964,1.484617 -0.377635,2.2860581 -0.997136,2.985548 -3.825486,5.308056 -6.8409289,5.617412 -0.2491803,0.02546 -0.8706681,0.04378 -1.0792297,0.03103 z"
       id="path3838"
       style="fill:none;stroke:#000000;stroke-width:0.02148491;stroke-miterlimit:4;stroke-opacity:0.19607843;stroke-dasharray:none" />
    <path
       d="M 7.3918317,15.888469 C 6.9990833,15.853406 6.2108003,15.682193 5.7556314,15.53309 3.3385541,14.741315 1.2741891,12.692727 0.47543586,10.29325 0.18594332,9.4236067 0.10965833,8.9485133 0.10869507,8.0092347 0.10774434,7.0821609 0.18800789,6.5667896 0.46233555,5.7385148 1.4217752,2.8416877 4.1022359,0.56560713 7.0446018,0.14926372 7.6604348,0.06212361 8.9548914,0.11843286 9.5316832,0.25745254 11.09304,0.63377433 12.345268,1.3433202 13.519277,2.5169312 c 1.672044,1.6714774 2.508618,3.7933596 2.359739,5.9852338 -0.0441,0.6493175 -0.134425,1.1084039 -0.341745,1.737031 -0.881514,2.672899 -3.279057,4.877812 -5.9605383,5.48164 -0.6964753,0.156835 -1.5620195,0.223243 -2.184901,0.167633 z"
       id="path3930"
       style="fill:#e6e6e6;stroke:#000000;stroke-width:0.04504951;stroke-miterlimit:4;stroke-opacity:0.19607843;stroke-dasharray:none" />
  </g>
</svg>
