<?xml version="1.0" encoding="UTF-8" standalone="no"?>
<!-- Created with Inkscape (http://www.inkscape.org/) -->

<svg
   xmlns:dc="http://purl.org/dc/elements/1.1/"
   xmlns:cc="http://creativecommons.org/ns#"
   xmlns:rdf="http://www.w3.org/1999/02/22-rdf-syntax-ns#"
   xmlns:svg="http://www.w3.org/2000/svg"
   xmlns="http://www.w3.org/2000/svg"
   xmlns:sodipodi="http://sodipodi.sourceforge.net/DTD/sodipodi-0.dtd"
   xmlns:inkscape="http://www.inkscape.org/namespaces/inkscape"
   version="1.1"
   width="64"
   height="64"
   id="svg3042"
   inkscape:version="0.48.4 r9939"
   sodipodi:docname="play-button4_64_black.svg">
  <sodipodi:namedview
     pagecolor="#ffffff"
     bordercolor="#666666"
     borderopacity="1"
     objecttolerance="10"
     gridtolerance="10"
     guidetolerance="10"
     inkscape:pageopacity="0"
     inkscape:pageshadow="2"
     inkscape:window-width="1824"
     inkscape:window-height="951"
     id="namedview3205"
     showgrid="false"
     inkscape:zoom="3.6875"
     inkscape:cx="32"
     inkscape:cy="32"
     inkscape:window-x="0"
     inkscape:window-y="0"
     inkscape:window-maximized="1"
     inkscape:current-layer="svg3042" />
  <defs
     id="defs3044" />
  <metadata
     id="metadata3047">
    <rdf:RDF>
      <cc:Work
         rdf:about="">
        <dc:format>image/svg+xml</dc:format>
        <dc:type
           rdf:resource="http://purl.org/dc/dcmitype/StillImage" />
        <dc:title></dc:title>
      </cc:Work>
    </rdf:RDF>
  </metadata>
  <g
     id="layer1">
    <g
       transform="matrix(0.18285714,0,0,0.18285714,0.08979529,-0.03337797)"
       id="g3089">
      <path
         d="M 175,0 C 78.343,0 0,78.343 0,175 0,271.656 78.343,350 175,350 271.656,350 350,271.656 350,175 350,78.343 271.656,0 175,0 z m 83.738,189.05 -104.386,71.812 c -2.904,1.989 -6.284,3.006 -9.673,3.006 -2.728,0 -5.436,-0.648 -7.93,-1.951 -5.605,-2.965 -9.125,-8.777 -9.125,-15.103 V 103.188 c 0,-6.326 3.52,-12.139 9.125,-15.104 5.605,-2.94 12.377,-2.535 17.603,1.055 l 104.386,71.811 c 4.619,3.18 7.387,8.441 7.387,14.05 0,5.609 -2.767,10.87 -7.387,14.05 z"
         id="path3051" />
    </g>
  </g>
  <path
     style="fill:#008000"
     d="M 28.61619,63.596428 C 23.497053,63.055322 17.339218,60.618481 13.084264,57.44998 6.8550047,52.811287 2.5238408,45.961012 0.8486362,38.097814 0.18623176,34.988569 0.18781852,29.063894 0.85189627,25.925424 4.0569814,10.778001 16.924794,0.16271186 32.081356,0.16271186 c 12.305467,0 23.591731,7.22312894 28.863262,18.47228314 5.502474,11.74197 3.208109,25.661466 -5.80029,35.189311 -5.123013,5.418419 -12.411707,8.995092 -19.944328,9.786981 -2.891311,0.303959 -3.582403,0.3024 -6.58381,-0.01486 l 0,2e-6 z M 27.683287,48.067859 c 1.327428,-0.5568 19.907056,-13.407431 20.5304,-14.199883 0.618888,-0.786788 0.721085,-2.37942 0.22285,-3.472925 -0.215384,-0.472719 -3.576502,-2.944567 -10.101695,-7.429034 -5.3784,-3.69633 -10.045464,-6.861242 -10.371251,-7.033139 -0.852071,-0.449581 -2.184618,-0.384847 -3.090249,0.150122 -1.613903,0.953356 -1.605643,0.871066 -1.604532,15.985103 9.77e-4,13.347639 0.01853,13.818259 0.547714,14.686216 0.502175,0.823663 1.801647,1.643175 2.646424,1.668965 0.191231,0.0058 0.740382,-0.154104 1.220339,-0.355425 l 0,0 z"
     id="path3207"
     inkscape:connector-curvature="0" />
</svg>
