<?xml version="1.0" encoding="UTF-8" standalone="no"?>
<!-- Created with Inkscape (http://www.inkscape.org/) -->

<svg
   xmlns:dc="http://purl.org/dc/elements/1.1/"
   xmlns:cc="http://creativecommons.org/ns#"
   xmlns:rdf="http://www.w3.org/1999/02/22-rdf-syntax-ns#"
   xmlns:svg="http://www.w3.org/2000/svg"
   xmlns="http://www.w3.org/2000/svg"
   version="1.1"
   width="32"
   height="32"
   id="svg3023">
  <defs
     id="defs3025" />
  <metadata
     id="metadata3028">
    <rdf:RDF>
      <cc:Work
         rdf:about="">
        <dc:format>image/svg+xml</dc:format>
        <dc:type
           rdf:resource="http://purl.org/dc/dcmitype/StillImage" />
        <dc:title></dc:title>
      </cc:Work>
    </rdf:RDF>
  </metadata>
  <g
     id="layer1">
    <path
       d="M 14.230927,31.879173 C 11.653383,31.607236 8.5528416,30.38258 6.410423,28.790222 3.2739186,26.459006 1.0931274,23.01634 0.24964247,19.064621 -0.08388585,17.502042 -0.0830869,14.524545 0.25128395,12.947279 1.8650815,5.3348089 8.3441744,1.8866689e-6 15.975679,1.8866689e-6 c 6.195945,0 11.87871,3.6300470133311 14.532987,9.2834080133311 2.770559,5.9010301 1.61532,12.8963951 -2.920513,17.6846971 -2.579497,2.723075 -6.249439,4.520563 -10.042201,4.918534 -1.455808,0.152757 -1.803781,0.151974 -3.315025,-0.0075 l 0,1e-6 z M 13.7612,24.075154 c 0.668375,-0.279824 10.023434,-6.738022 10.337294,-7.136276 0.311618,-0.395407 0.363075,-1.195798 0.112208,-1.745349 -0.108448,-0.237569 -1.80081,-1.479818 -5.086321,-3.733526 -2.708086,-1.8576231 -5.058007,-3.4481771 -5.222045,-3.5345661 -0.429027,-0.225941 -1.09998,-0.193408 -1.555976,0.07545 -0.812619,0.479118 -0.80846,0.437762 -0.8079,8.0334541 4.92e-4,6.707974 0.0093,6.944488 0.27578,7.380687 0.252851,0.413939 0.90715,0.825792 1.332505,0.838753 0.09629,0.0029 0.372791,-0.07745 0.614455,-0.178622 l 0,0 z"
       id="path3207"
       style="fill:#88aa00" />
  </g>
</svg>
