<?xml version="1.0" encoding="UTF-8" standalone="no"?>
<!-- Created with Inkscape (http://www.inkscape.org/) -->

<svg
   xmlns:dc="http://purl.org/dc/elements/1.1/"
   xmlns:cc="http://creativecommons.org/ns#"
   xmlns:rdf="http://www.w3.org/1999/02/22-rdf-syntax-ns#"
   xmlns:svg="http://www.w3.org/2000/svg"
   xmlns="http://www.w3.org/2000/svg"
   version="1.1"
   width="64"
   height="64"
   id="svg3042">
  <defs
     id="defs3044" />
  <metadata
     id="metadata3047">
    <rdf:RDF>
      <cc:Work
         rdf:about="">
        <dc:format>image/svg+xml</dc:format>
        <dc:type
           rdf:resource="http://purl.org/dc/dcmitype/StillImage" />
        <dc:title></dc:title>
      </cc:Work>
    </rdf:RDF>
  </metadata>
  <g
     id="layer1">
    <g
       transform="matrix(0.18285714,0,0,0.18285714,0.08979529,-0.03337797)"
       id="g3089">
      <path
         d="M 175,0 C 78.343,0 0,78.343 0,175 0,271.656 78.343,350 175,350 271.656,350 350,271.656 350,175 350,78.343 271.656,0 175,0 z m 83.738,189.05 -104.386,71.812 c -2.904,1.989 -6.284,3.006 -9.673,3.006 -2.728,0 -5.436,-0.648 -7.93,-1.951 -5.605,-2.965 -9.125,-8.777 -9.125,-15.103 V 103.188 c 0,-6.326 3.52,-12.139 9.125,-15.104 5.605,-2.94 12.377,-2.535 17.603,1.055 l 104.386,71.811 c 4.619,3.18 7.387,8.441 7.387,14.05 0,5.609 -2.767,10.87 -7.387,14.05 z"
         id="path3051" />
    </g>
  </g>
</svg>
