<?xml version="1.0" encoding="UTF-8" standalone="no"?>
<svg
   xmlns:lc="http://www.librecad.org"
   xmlns:dc="http://purl.org/dc/elements/1.1/"
   xmlns:cc="http://creativecommons.org/ns#"
   xmlns:rdf="http://www.w3.org/1999/02/22-rdf-syntax-ns#"
   xmlns:svg="http://www.w3.org/2000/svg"
   xmlns="http://www.w3.org/2000/svg"
   xmlns:sodipodi="http://sodipodi.sourceforge.net/DTD/sodipodi-0.dtd"
   xmlns:inkscape="http://www.inkscape.org/namespaces/inkscape"
   width="3400mm"
   height="2800mm"
   viewBox="0 0 3400 2800"
   id="svg4410"
   version="1.1"
   inkscape:version="0.91 r13725"
   sodipodi:docname="table-2018.svg">
  <metadata
     id="metadata4736">
    <rdf:RDF>
      <cc:Work
         rdf:about="">
        <dc:format>image/svg+xml</dc:format>
        <dc:type
           rdf:resource="http://purl.org/dc/dcmitype/StillImage" />
      </cc:Work>
    </rdf:RDF>
  </metadata>
  <defs
     id="defs4734" />
  <sodipodi:namedview
     pagecolor="#ffffff"
     bordercolor="#666666"
     borderopacity="1"
     objecttolerance="10"
     gridtolerance="10"
     guidetolerance="10"
     inkscape:pageopacity="0"
     inkscape:pageshadow="2"
     inkscape:window-width="1615"
     inkscape:window-height="1026"
     id="namedview4732"
     showgrid="false"
     inkscape:zoom="0.2691226"
     inkscape:cx="10265.929"
     inkscape:cy="4299.0784"
     inkscape:window-x="65"
     inkscape:window-y="24"
     inkscape:window-maximized="1"
     inkscape:current-layer="svg4410" />
  <g
     lc:layername="0"
     lc:is_locked="false"
     lc:is_construction="false"
     fill="none"
     stroke="black"
     stroke-width="1"
     id="g4412">
    <path
       d="M380,300 L380,360 A420,420 0 0,0 780,779.52353927 L780,1430 L480,1430 L480,1490 L780,1490 L780,1920 L600,1920 L600,1650 L200,1650 L200,300 L380,300 Z "
       id="path4414" />
    <path
       d="M1700,1880 L1670,1880 L1670,1920 L840,1920 L840,1490 L1070,1490 L1070,1430 L840,1430 L840,600 L780,600 L780,719.44401511 A360,360 0 0,1 440,360 L440,300 L1700,300 L1700,1880 Z "
       id="path4416" />
    <path
       d="M400,360 L400,300 L420,300 L420,360 A380,380 0 0,0 800,740 L800,620 L820,620 L820,1450 L1050,1450 L1050,1470 L820,1470 L820,1940 L1690,1940 L1690,1900 L1700,1900 L1700,2000 L1690,2000 L1690,1960 L1340,1960 L1340,2300 L1320,2300 L1320,1960 L600,1960 L600,1940 L800,1940 L800,1470 L500,1470 L500,1450 L800,1450 L800,760 A400,400 0 0,1 400,360 Z "
       id="path4418" />
    <path
       d="M1700,300 L200,300 L200,2300 L1700,2300 L1700,2322 L178,2322 L178,278 L1700,278 L1700,300 Z "
       id="path4420" />
    <path
       d="M3200,300 L1700,300 L1700,278 L3222,278 L3222,2322 L1700,2322 L1700,2300 L3200,2300 L3200,300 Z "
       id="path4422" />
    <path
       d="M1730,1880 L1700,1880 L1700,300 L2960,300 L2960,360 A360,360 0 0,1 2620,719.44401511 L2620,600 L2560,600 L2560,1430 L2330,1430 L2330,1490 L2560,1490 L2560,1920 L1730,1920 L1730,1880 Z "
       id="path4424" />
    <path
       d="M3020,360 L3020,300 L3200,300 L3200,1650 L2800,1650 L2800,1920 L2620,1920 L2620,1490 L2920,1490 L2920,1430 L2620,1430 L2620,779.52353927 A420,420 0 0,0 3020,360 Z "
       id="path4426" />
    <path
       d="M3000,300 L3000,360 A400,400 0 0,1 2600,760 L2600,1450 L2900,1450 L2900,1470 L2600,1470 L2600,1940 L2800,1940 L2800,1960 L2080,1960 L2080,2300 L2060,2300 L2060,1960 L1710,1960 L1710,2000 L1700,2000 L1700,1900 L1710,1900 L1710,1940 L2580,1940 L2580,1470 L2350,1470 L2350,1450 L2580,1450 L2580,620 L2600,620 L2600,740 A380,380 0 0,0 2980,360 L2980,300 L3000,300 Z "
       id="path4428" />
    <path
       d="M2800,1940 L3200,1940 L3200,1960 L2800,1960 L2800,1940 Z "
       id="path4430" />
    <path
       d="M2100,2300 L2100,1980 L2800,1980 L2800,2120 L2230,2120 L2230,2300 L2100,2300 Z "
       id="path4432" />
    <path
       d="M2250,2140 L2800,2140 L2800,2300 L2250,2300 L2250,2140 Z "
       id="path4434" />
    <path
       d="M1300,1980 L1300,2300 L1170,2300 L1170,2120 L600,2120 L600,1980 L1300,1980 Z "
       id="path4436" />
    <path
       d="M600,2140 L1150,2140 L1150,2300 L600,2300 L600,2140 Z "
       id="path4438" />
    <path
       d="M1670,2020 L1700,2020 L1700,2300 L1360,2300 L1360,1980 L1670,1980 L1670,2020 Z "
       id="path4440" />
    <path
       d="M1700,2020 L1730,2020 L1730,1980 L2040,1980 L2040,2300 L1700,2300 L1700,2020 Z "
       id="path4442" />
    <path
       d="M550,2354 L550,2704 L200,2704 L200,2354 L550,2354 Z "
       id="path4444" />
    <path
       d="M106,2245 L56,2245 L56,2200 L156,2200 L156,2300 L56,2300 L56,2255 L106,2255 A5,5 0 0,0 106,2245 Z "
       id="path4446" />
    <path
       d="M156,2300 L156,2200 L178,2200 L178,2322 L56,2322 L56,2300 L156,2300 Z "
       id="path4448" />
    <path
       d="M156,1449 L195.6284454,1449 L195.6284454,1471 L156,1471 L156,1449 Z "
       id="path4450" />
    <circle
       cx="276.5138481"
       cy="1460"
       r="30"
       id="circle4452" />
    <path
       d="M1700,2322 L1700,2522 L1500,2522 L1500,2427 L1600,2427 A5,5 0 0,0 1600,2417 L1500,2417 L1500,2322 L1700,2322 Z "
       id="path4454" />
    <path
       d="M1700,2522 L1700,2322 L1900,2322 L1900,2417 L1800,2417 A5,5 0 0,0 1800,2427 L1900,2427 L1900,2522 L1700,2522 Z "
       id="path4456" />
    <line
       x1="1770"
       y1="2522"
       x2="1630"
       y2="2522"
       id="line4458" />
    <path
       d="M1630,2522 L1770,2522 L1770,2544 L1630,2544 L1630,2522 Z "
       id="path4460" />
    <path
       d="M2200,2344 L1200,2344 L1200,2322 L1480,2322 L1920,2322 L2200,2322 L2200,2344 Z "
       id="path4462" />
    <path
       d="M1355,2312.01 L1355,2317.01 L1305,2317.01 L1305,2312.01 L1355,2312.01 Z "
       id="path4464" />
    <path
       d="M1371,2322.01 L1289,2322.01 L1289,2317.01 L1371,2317.01 L1371,2322.01 Z "
       id="path4466" />
    <path
       d="M2111,2322.01 L2029,2322.01 L2029,2317.01 L2111,2317.01 L2111,2322.01 Z "
       id="path4468" />
    <path
       d="M2095,2312.01 L2095,2317.01 L2045,2317.01 L2045,2312.01 L2095,2312.01 Z "
       id="path4470" />
    <path
       d="M3210,2344 L2840,2344 L2840,2322 L3210,2322 L3210,2344 Z "
       id="path4472" />
    <path
       d="M2850,2704 L2840,2704 L2840,2344 L3200,2344 L3200,2354 L2850,2354 L2850,2704 Z "
       id="path4474" />
    <path
       d="M2840,2704 L3200,2704 L3200,2344 L3210,2344 L3210,2714 L2840,2714 L2840,2704 Z "
       id="path4476" />
    <path
       d="M2850,2704 L2850,2354 L3200,2354 L3200,2704 L2850,2704 Z "
       id="path4478" />
    <path
       d="M3200,2704 L2840,2704 L2840,2682 L3200,2682 L3200,2704 Z "
       id="path4480" />
    <path
       d="M3200,2344 L3200,2682 L3178,2682 L3178,2344 L3200,2344 Z "
       id="path4482" />
    <path
       d="M200,2682 L200,2344 L222,2344 L222,2682 L200,2682 Z "
       id="path4484" />
    <path
       d="M560,2344 L190,2344 L190,2322 L560,2322 L560,2344 Z "
       id="path4486" />
    <path
       d="M560,2704 L550,2704 L550,2354 L200,2354 L200,2344 L560,2344 L560,2704 Z "
       id="path4488" />
    <path
       d="M560,2704 L200,2704 L200,2682 L560,2682 L560,2704 Z "
       id="path4490" />
    <path
       d="M2601,256 L2601,295.6284454 L2579,295.6284454 L2579,256 L2601,256 Z "
       id="path4492" />
    <circle
       cx="2590"
       cy="376.5138481"
       r="30"
       id="circle4494" />
    <circle
       cx="2590"
       cy="315.73698591"
       r="30"
       id="circle4496" />
    <circle
       cx="2590"
       cy="376.5138481"
       r="30"
       id="circle4498" />
    <path
       d="M3294,1305 L3344,1305 L3344,1350 L3244,1350 L3244,1250 L3344,1250 L3344,1295 L3294,1295 A5,5 0 0,0 3294,1305 Z "
       id="path4500" />
    <path
       d="M3244,1350 L3344,1350 L3344,1372 L3222,1372 L3222,1250 L3244,1250 L3244,1350 Z "
       id="path4502" />
    <path
       d="M3244,1471 L3204.3715546,1471 L3204.3715546,1449 L3244,1449 L3244,1471 Z "
       id="path4504" />
    <circle
       cx="3184.26301409"
       cy="1460"
       r="27"
       id="circle4506" />
    <circle
       cx="3123.4861519"
       cy="1460"
       r="27"
       id="circle4508" />
    <circle
       cx="3123.4861519"
       cy="1460"
       r="27"
       id="circle4510" />
    <circle
       cx="3184.26301409"
       cy="1460"
       r="30"
       id="circle4512" />
    <circle
       cx="3123.4861519"
       cy="1460"
       r="30"
       id="circle4514" />
    <circle
       cx="2590"
       cy="315.73698591"
       r="30"
       id="circle4516" />
    <circle
       cx="2590"
       cy="376.5138481"
       r="30"
       id="circle4518" />
    <path
       d="M3294,355 L3344,355 L3344,400 L3244,400 L3244,300 L3344,300 L3344,345 L3294,345 A5,5 0 1,0 3294,355 Z "
       id="path4520" />
    <path
       d="M3244,400 L3344,400 L3344,422 L3222,422 L3222,300 L3244,300 L3244,400 Z "
       id="path4522" />
    <path
       d="M3222,300 L3222,150 L3244,150 L3244,300 L3222,300 Z "
       id="path4524" />
    <path
       d="M2972,172 L2972,150 L3222,150 L3222,172 L2972,172 Z "
       id="path4526" />
    <path
       d="M2972,150 L2972,172 L2922,172 L2922,150 L2972,150 Z "
       id="path4528" />
    <path
       d="M2922,172 L1960,172 L1960,150 L2922,150 L2922,172 Z "
       id="path4530" />
    <path
       d="M1960,172 L1930,172 L1930,150 L1960,150 L1960,172 Z "
       id="path4532" />
    <path
       d="M1930,48 L1930,278 L1908,278 L1908,70 L1722,70 L1722,278 L1700,278 L1700,48 L1930,48 Z "
       id="path4534" />
    <path
       d="M1700,48 L1700,278 L1678,278 L1678,70 L1492,70 L1492,278 L1470,278 L1470,48 L1700,48 Z "
       id="path4536" />
    <path
       d="M1440,150 L1470,150 L1470,172 L1440,172 L1440,150 Z "
       id="path4538" />
    <path
       d="M478,150 L1440,150 L1440,172 L478,172 L478,150 Z "
       id="path4540" />
    <path
       d="M1700,323.44319081 L1700,301.4736828 L2300,301.4736828 L2300,323.44319081 L1700,323.44319081 Z "
       id="path4542" />
    <path
       d="M2300,550 L2300,300 L2306,300 L2306,550 L2300,550 Z "
       id="path4544" />
    <path
       d="M1700,528.03049199 A16.35354253,16.35354253 0 0,0 1700,551.15789362 L2300,551.15789362 A16.35354253,16.35354253 0 0,0 2300,528.03049199 L1700,528.03049199 Z "
       id="path4546" />
    <path
       d="M1700,550 L1700,300.31578917 L2300,300.31578917 L2300,550 L1700,550 Z "
       id="path4548" />
    <path
       d="M1700,300.31578917 L1700,550 L1100,550 L1100,300.31578917 L1700,300.31578917 Z "
       id="path4550" />
    <path
       d="M1700,301.4736828 L1700,323.44319081 L1100,323.44319081 L1100,301.4736828 L1700,301.4736828 Z "
       id="path4552" />
    <path
       d="M1100,300 L1100,550 L1094,550 L1094,300 L1100,300 Z "
       id="path4554" />
    <path
       d="M1700,528.03049199 A16.35354253,16.35354253 0 0,0 1700,551.15789362 L1100,551.15789362 A16.35354253,16.35354253 0 0,0 1100,528.03049199 L1700,528.03049199 Z "
       id="path4556" />
    <path
       d="M821,256 L821,295.6284454 L799,295.6284454 L799,256 L821,256 Z "
       id="path4558" />
    <path
       d="M428,172 L428,150 L478,150 L478,172 L428,172 Z "
       id="path4560" />
    <path
       d="M428,150 L428,172 L178,172 L178,150 L428,150 Z "
       id="path4562" />
    <path
       d="M156,300 L156,150 L178,150 L178,300 L156,300 Z "
       id="path4564" />
    <circle
       cx="810"
       cy="315.73698591"
       r="30"
       id="circle4566" />
    <circle
       cx="810"
       cy="376.5138481"
       r="30"
       id="circle4568" />
    <circle
       cx="810"
       cy="376.5138481"
       r="27"
       id="circle4570" />
    <circle
       cx="810"
       cy="315.73698591"
       r="30"
       id="circle4572" />
    <circle
       cx="810"
       cy="376.5138481"
       r="30"
       id="circle4574" />
    <path
       d="M106,345 L56,345 L56,300 L156,300 L156,400 L56,400 L56,355 L106,355 A5,5 0 0,0 106,345 Z "
       id="path4576" />
    <path
       d="M156,400 L156,300 L178,300 L178,422 L56,422 L56,400 L156,400 Z "
       id="path4578" />
    <path
       d="M106,1295 L56,1295 L56,1250 L156,1250 L156,1350 L56,1350 L56,1305 L106,1305 A5,5 0 0,0 106,1295 Z "
       id="path4580" />
    <path
       d="M156,1350 L156,1250 L178,1250 L178,1372 L56,1372 L56,1350 L156,1350 Z "
       id="path4582" />
    <circle
       cx="215.73698591"
       cy="1460"
       r="27"
       id="circle4584" />
    <circle
       cx="215.73698591"
       cy="1460"
       r="30"
       id="circle4586" />
    <circle
       cx="276.5138481"
       cy="1460"
       r="30"
       id="circle4588" />
    <circle
       cx="276.5138481"
       cy="1460"
       r="27"
       id="circle4590" />
    <circle
       cx="810"
       cy="315.73698591"
       r="27"
       id="circle4592" />
    <circle
       cx="2590"
       cy="315.73698591"
       r="30"
       id="circle4594" />
    <circle
       cx="2590"
       cy="376.5138481"
       r="30"
       id="circle4596" />
    <circle
       cx="2590"
       cy="315.73698591"
       r="27"
       id="circle4598" />
    <circle
       cx="2590"
       cy="376.5138481"
       r="27"
       id="circle4600" />
    <path
       d="M200,1940 L600,1940 L600,1960 L200,1960 L200,1940 Z "
       id="path4602" />
    <line
       x1="600"
       y1="1920"
       x2="200"
       y2="1920"
       id="line4604" />
    <path
       d="M780,1920 L780,1490 L480,1490 L480,1430 L780,1430 L780,779.52353927 A420,420 0 0,1 380,360 L380,300 L400,300 L400,360 A400,400 0 0,0 800,760 L800,1450 L500,1450 L500,1470 L800,1470 L800,1940 L200,1940 L200,1920 L780,1920 Z "
       id="path4606" />
    <path
       d="M200,1960 L1320,1960 L1320,2300 L1300,2300 L1300,1980 L200,1980 L200,1960 Z "
       id="path4608" />
    <path
       d="M2080,1960 L3200,1960 L3200,1980 L2100,1980 L2100,2300 L2080,2300 L2080,1960 Z "
       id="path4610" />
    <path
       d="M2620,1490 L2620,1920 L3200,1920 L3200,1940 L2600,1940 L2600,1470 L2900,1470 L2900,1450 L2600,1450 L2600,760 A400,400 0 0,0 3000,360 L3000,300 L3020,300 L3020,360 A420,420 0 0,1 2620,779.52353927 L2620,1430 L2920,1430 L2920,1490 L2620,1490 Z "
       id="path4612" />
    <path
       d="M2620,1490 L2620,1920 L3200,1920 L3200,1940 L2600,1940 L2600,1470 L2900,1470 L2900,1450 L2600,1450 L2600,760 A400,400 0 0,0 3000,360 L3000,300 L3020,300 L3020,360 A420,420 0 0,1 2620,779.52353927 L2620,1430 L2920,1430 L2920,1490 L2620,1490 Z "
       id="path4614" />
    <path
       inkscape:connector-curvature="0"
       d="m 3294.4551,2254.7955 50,0 0,45 -100,0 0,-100 100,0 0,45 -50,0 a 5,5 0 1 0 0,10 z"
       id="path4520-6"
       style="stroke-width:0.28222221" />
    <path
       inkscape:connector-curvature="0"
       d="m 3244.4551,2299.7955 100,0 0,22 -122,0 0,-122 22,0 0,100 z"
       id="path4522-7"
       style="stroke-width:0.28222221" />
    <path
       style="fill:#008000;stroke-width:10.50980949"
       d="m 11504.571,7970.9958 0,-168.157 168.157,0 168.157,0 0,73.1595 0,73.1595 -91.842,3.0366 c -77.683,2.5685 -92.385,5.8722 -95.359,21.4288 -3.14,16.4234 6.691,18.3922 91.842,18.3922 l 95.359,0 0,73.5686 0,73.5687 -168.157,0 -168.157,0 0,-168.1569 z"
       id="path5075"
       inkscape:connector-curvature="0"
       transform="scale(0.28222222,0.28222222)" />
    <path
       style="fill:#008000;stroke-width:10.50980949"
       d="m 11504.571,1239.463 0,-173.4119 168.157,0 168.157,0 0,73.1595 0,73.1595 -91.961,3.0366 c -83.942,2.7719 -91.96,4.8695 -91.96,24.0563 0,19.1868 8.018,21.2844 91.96,24.0562 l 91.961,3.0367 0,73.1595 0,73.1594 -168.157,0 -168.157,0 0,-173.4118 z"
       id="path5077"
       inkscape:connector-curvature="0"
       transform="scale(0.28222222,0.28222222)" />
    <path
       style="fill:#008000;stroke-width:10.50980949"
       d="m 10537.669,572.09011 0,-31.52942 436.157,0 436.157,0 0,31.52942 0,31.52943 -436.157,0 -436.157,0 0,-31.52943 z"
       id="path5079"
       inkscape:connector-curvature="0"
       transform="scale(0.28222222,0.28222222)" />
    <path
       style="fill:#008000;stroke-width:10.50980949"
       d="m 6108.9477,619.38425 0,-362.58841 320.5492,0 320.5492,0 0,362.58841 0,362.58842 -320.5492,0 -320.5492,0 0,-362.58842 z"
       id="path5081"
       inkscape:connector-curvature="0"
       transform="scale(0.28222222,0.28222222)" />
    <path
       style="fill:#008000;stroke-width:5.25490475"
       d="m 3901.1341,1107.751 0,-34.1569 1058.8633,0 1058.8633,0 0,34.1569 0,34.1569 -1058.8633,0 -1058.8633,0 0,-34.1569 z"
       id="path5083"
       inkscape:connector-curvature="0"
       transform="scale(0.28222222,0.28222222)" />
    <path
       style="fill:#008000;stroke-width:5.25490475"
       d="m 3880.1145,1507.1238 c 0,-387.6044 0.9245,-438.7846 7.9261,-438.7846 7.0028,0 7.9089,51.1148 7.7782,438.7846 -0.1294,383.8494 -1.1217,438.7845 -7.9261,438.7845 -6.8055,0 -7.7782,-54.8685 -7.7782,-438.7845 z"
       id="path5085"
       inkscape:connector-curvature="0"
       transform="scale(0.28222222,0.28222222)" />
    <path
       style="fill:#008000;stroke-width:5.25490475"
       d="m 3914.2714,1911.7514 0,-34.1569 1045.726,0 1045.726,0 0,34.1569 0,34.1569 -1045.726,0 -1045.726,0 0,-34.1569 z"
       id="path5087"
       inkscape:connector-curvature="0"
       transform="scale(0.28222222,0.28222222)" />
    <path
       style="fill:#008000;stroke-width:14.86311436"
       d="m 9125.6373,1400.2364 c -46.5887,-32.8478 -45.0336,-102.7913 2.985,-134.2543 47.283,-30.981 79.6056,-23.5657 117.2468,26.8984 l 30.4877,40.8736 -30.4037,40.8735 c -36.5569,49.1458 -75.2515,57.3818 -120.3158,25.6088 z"
       id="path5089"
       inkscape:connector-curvature="0"
       transform="scale(0.28222222,0.28222222)" />
    <path
       style="fill:#008000;stroke-width:14.86311436"
       d="m 2808.0704,1182.1503 c -9.8096,-9.8097 -17.8357,-40.257 -17.8357,-67.6608 l 0,-49.825 78.0314,4.4925 c 71.8047,4.1341 78.3922,7.605 82.554,43.4975 2.5019,21.5772 -6.2736,49.8014 -19.6405,63.1683 -28.3224,28.3223 -97.5559,31.8808 -123.1092,6.3275 z"
       id="path5091"
       inkscape:connector-curvature="0"
       transform="scale(0.28222222,0.28222222)" />
    <path
       style="fill:#008000;stroke-width:14.86311436"
       d="m 204.05275,4707.6811 0,-74.3156 97.70007,0 c 85.02651,0 97.05733,-3.374 92.7452,-26.0104 -3.97474,-20.8653 -23.30109,-26.8858 -97.70007,-30.4355 l -92.7452,-4.425 0,-66.1748 0,-66.1748 170.92582,0 170.92582,0 0,170.9258 0,170.9259 -170.92582,0 -170.92582,0 0,-74.3156 z"
       id="path5093"
       inkscape:connector-curvature="0"
       transform="scale(0.28222222,0.28222222)" />
    <path
       style="fill:#008000;stroke-width:3.71577859"
       d="m 11251.69,5259.7213 c -35.986,-12.8555 -59.841,-47.0122 -59.82,-85.6529 0.02,-37.6539 16.869,-65.5681 49.582,-82.1451 21.562,-10.926 54.764,-12.2652 77.596,-3.1297 l 14.938,5.9772 0,77.8095 0,77.8096 -15.792,7.1683 c -18.26,8.2887 -46.762,9.2157 -66.504,2.1631 z"
       id="path5095"
       inkscape:connector-curvature="0"
       transform="scale(0.28222222,0.28222222)" />
    <path
       style="fill:#4d4d4d;stroke-width:3.71577859"
       d="m 11037.365,5260.1745 c -6.8,-2.1761 -20.408,-11.189 -30.24,-20.0287 -62.776,-56.4406 -23.542,-157.3293 61.183,-157.3293 37.061,0 65.474,18.6316 82.166,53.8788 20.694,43.6991 2.359,94.2707 -42.714,117.8172 -21.466,11.2139 -46.702,13.2437 -70.395,5.662 z"
       id="path5097"
       inkscape:connector-curvature="0"
       transform="scale(0.28222222,0.28222222)" />
    <path
       style="fill:#4d4d4d;stroke-width:5.25490475"
       d="m 716.93,6840.3764 0,-31.5295 1024.7064,0 1024.7064,0 0,-767.216 0,-767.2161 -530.7454,0 -530.7453,0 0,-102.4706 0,-102.4707 530.7453,0 530.7454,0 0,-1074.628 0,-1074.628 31.5294,0 31.5294,0 0,1106.1575 0,1106.1574 -530.7453,0 -530.7454,0 0,39.4118 0,39.4117 530.7454,0 530.7453,0 0,830.275 0,830.2749 -1056.2358,0 -1056.2358,0 0,-31.5294 z"
       id="path5099"
       inkscape:connector-curvature="0"
       transform="scale(0.28222222,0.28222222)" />
    <path
       style="fill:#4d4d4d;stroke-width:5.25490475"
       d="m 4610.8143,7578.6905 0,-564.9023 -1946.9422,0 -1946.9421,0 0,-31.5294 0,-31.5294 1978.4716,0 1978.4716,0 0,596.4316 0,596.4317 -31.5295,0 -31.5294,0 0,-564.9022 z"
       id="path5101"
       inkscape:connector-curvature="0"
       transform="scale(0.28222222,0.28222222)" />
    <path
       style="fill:#4d4d4d;stroke-width:7.43155718"
       d="m 4753.6367,7546.2979 0,-598.2404 613.1035,0 613.1035,0 0,70.5998 0,70.5998 40.8736,0 40.8735,0 0,-70.5998 0,-70.5998 616.8193,0 616.8192,0 0,598.2404 0,598.2404 -29.6797,0 -29.6799,0 -1.9043,-566.6563 -1.9043,-566.6562 -553.651,0 -553.651,0 -2.1368,68.7419 -2.1367,68.7419 -100.0472,0 -100.0472,0 0,-70.5998 0,-70.5998 -553.651,0 -553.651,0 0,568.5141 0,568.5142 -29.7262,0 -29.7263,0 0,-598.2404 z"
       id="path5103"
       inkscape:connector-curvature="0"
       transform="scale(0.28222222,0.28222222)" />
    <path
       style="fill:#4d4d4d;stroke-width:7.43155718"
       d="m 2910.6105,6041.4075 0,-824.9028 408.7357,0 408.7356,0 0,-40.8736 0,-40.8736 -408.7356,0 -408.7357,0 0,-1133.3124 0,-1133.3125 29.7263,0 29.7262,0 0,1103.5862 0,1103.5863 408.7356,0 408.7357,0 0,100.326 0,100.326 -408.7357,0 -408.7356,0 0,765.4504 0,765.4504 1475.1641,0 1475.1641,0 0,-70.5997 0,-70.5998 100.0472,0 100.0472,0 2.1367,68.7419 2.1368,68.7419 767.3083,1.8926 767.3083,1.8926 0,29.6915 0,29.6915 -798.8925,0 -798.8924,0 0,-70.9882 0,-70.9881 -39.0156,2.2462 -39.0157,2.2463 -2.1368,68.7419 -2.1367,68.7419 -1534.3378,0 -1534.3377,0 0,-824.9029 z"
       id="path5105"
       inkscape:connector-curvature="0"
       transform="scale(0.28222222,0.28222222)" />
    <path
       style="fill:#4d4d4d;stroke-width:7.43155718"
       d="m 2910.6105,2526.2809 0,-334.4201 -40.8735,0 -40.8736,0 0,212.9167 0,212.9166 -79.8893,-4.8529 C 2308.4094,2586.079 1909.8412,2340.4623 1677.761,1952.7088 1548.806,1737.2541 1491.2059,1500.7785 1491.1893,1186.7427 l -0.01,-117.047 28.543,0 28.5431,0 4.6774,165.3521 c 6.6924,236.5829 33.5487,377.7452 102.7434,540.0401 67.6673,158.7126 149.9659,279.1088 277.2711,405.6256 222.9364,221.5556 463.0263,333.3674 797.4342,371.3716 l 39.0156,4.434 0,-212.0554 0,-212.0553 100.3261,0 100.326,0 0,364.1463 0,364.1463 -29.7262,0 -29.7263,0 0,-334.4201 z"
       id="path5107"
       inkscape:connector-curvature="0"
       transform="scale(0.28222222,0.28222222)" />
    <path
       style="fill:#4d4d4d;stroke-width:7.43155718"
       d="m 2769.4109,2836.249 0,-76.4728 -105.8997,-12.7366 c -346.7274,-41.701 -646.5945,-190.1944 -890.4599,-440.9536 -208.633,-214.5308 -342.1054,-471.7359 -396.7178,-764.4864 -17.3136,-92.8094 -26.337,-211.8122 -26.3438,-347.4253 l -0.01,-124.4786 29.7262,0 29.7262,0 0.018,105.8997 c 0.039,225.9163 21.2118,379.9987 74.937,545.3308 135.3808,416.616 465.0479,752.1625 881.3492,897.0676 128.6036,44.764 313.7248,79.2129 425.6727,79.2129 l 37.4507,0 0,107.7576 0,107.7576 -29.7262,0 -29.7263,0 0,-76.4729 z"
       id="path5109"
       inkscape:connector-curvature="0"
       transform="scale(0.28222222,0.28222222)" />
    <path
       style="fill:#4d4d4d;stroke-width:7.43155718"
       d="m 7375.513,7548.4362 0,-598.2403 1980.5101,0 1980.5099,0 0,29.7262 0,29.7262 -1950.7837,0 -1950.7838,0 0,568.5142 0,568.5141 -29.7262,0 -29.7263,0 0,-598.2404 z"
       id="path5111"
       inkscape:connector-curvature="0"
       transform="scale(0.28222222,0.28222222)" />
    <path
       style="fill:#4d4d4d;stroke-width:7.43155718"
       d="m 7665.3438,6838.7225 0,-29.7262 706.0326,0 706.0327,0 -1.8926,-767.3083 -1.8926,-767.3083 -406.8778,-1.9214 -406.8778,-1.9213 0,-100.2626 0,-100.2625 408.7357,0 408.7357,0 0,-1467.7326 0,-1467.7326 100.326,0 100.326,0 0,209.1964 0,209.1965 65.0261,-4.8369 c 199.398,-14.8319 435.9315,-104.1465 618.5483,-233.5627 83.9639,-59.5032 218.1909,-191.644 275.0969,-270.8218 l 40.873,-56.8706 35.562,-0.466 c 42.34,-0.5549 43.088,-3.2325 -25.003,89.5249 -61.661,83.9975 -210.446,229.7611 -294.9922,289.0016 -215.7256,151.1569 -438.8884,230.1262 -705.8217,249.7649 l -68.7419,5.0575 0,-212.8657 0,-212.8656 -40.8735,0 -40.8736,0 0,1467.6691 0,1467.6691 -406.8778,1.9213 -406.8777,1.9214 -2.2463,39.0157 -2.2462,39.0157 409.124,0 409.124,0 0,828.6186 0,828.6186 -735.7242,0 -735.7241,0 0,-29.7262 z"
       id="path5113"
       inkscape:connector-curvature="0"
       transform="scale(0.28222222,0.28222222)" />
    <path
       style="fill:#4d4d4d;stroke-width:7.43155718"
       d="m 9218.5392,6039.8301 0,-828.6186 531.3564,0 531.3564,0 0,-40.8736 0,-40.8736 -531.3564,0 -531.3564,0 0,-1213.8972 0,-1213.8972 102.184,-8.6825 c 444.6291,-37.7794 830.2288,-262.877 1074.2618,-627.1113 l 53.477,-79.8179 31.775,-0.071 31.775,-0.071 -12.446,24.1525 c -23.61,45.8169 -99.585,153.8508 -153.985,218.9614 -233.345,279.2864 -582.8317,471.8416 -933.8213,514.5029 -38.8299,4.7197 -84.8126,10.29 -102.1839,12.3785 l -31.5841,3.7974 0,1155.1517 0,1155.1519 531.3564,0 531.3559,0 0,100.326 0,100.326 -531.3559,0 -531.3564,0 0,769.1662 0,769.1662 1029.2703,0 1029.271,0 0,29.7262 0,29.7262 -1058.997,0 -1058.9968,0 0,-828.6186 z"
       id="path5115"
       inkscape:connector-curvature="0"
       transform="scale(0.28222222,0.28222222)" />
    <path
       style="fill:#4d4d4d;stroke-width:7.43155718"
       d="m 10493.255,1894.879 c 101.969,-212.0774 144.641,-424.6695 144.694,-720.8611 l 0.02,-102.1839 29.726,0 29.726,0 0,120.7628 c -0.01,281.2273 -44.344,501.733 -143.424,713.4295 l -33.913,72.4577 -33.51,0 -33.509,0 40.198,-83.605 z"
       id="path5117"
       inkscape:connector-curvature="0"
       transform="scale(0.28222222,0.28222222)" />
    <path
       style="fill:#4d4d4d;stroke-width:7.43155718"
       d="m 10316.552,1980.5019 c -15.328,-1.6033 -27.868,-4.3351 -27.868,-6.0706 0,-1.7356 9.954,-19.3344 22.122,-39.1085 37.005,-60.1419 94.689,-186.9722 118.323,-260.1609 46.301,-143.3827 67.26,-303.5374 67.528,-516.0071 l 0.11,-87.3208 29.726,0 29.727,0 -0.118,109.6155 c -0.315,293.5716 -41.933,488.2189 -150.099,702.0142 -28.508,56.3485 -54.027,101.8897 -56.708,101.2026 -2.681,-0.6871 -17.416,-2.561 -32.743,-4.1644 z"
       id="path5119"
       inkscape:connector-curvature="0"
       transform="scale(0.28222222,0.28222222)" />
  </g>
  <g
     lc:layername="elements"
     lc:is_locked="false"
     lc:is_construction="false"
     fill="none"
     stroke="black"
     stroke-width="1"
     id="g4632">
    <circle
       cx="106"
       cy="2250"
       r="0.1"
       id="circle4634" />
    <circle
       cx="2350"
       cy="1760"
       r="0.1"
       id="circle4636" />
    <circle
       cx="2350"
       cy="1760"
       r="0.1"
       id="circle4638" />
    <circle
       cx="2350"
       cy="1760"
       r="0.1"
       id="circle4640" />
    <path
       d="M2263,1789 L2321,1789 L2321,1731 L2263,1731 L2263,1789 Z "
       id="path4642" />
    <path
       d="M2321,1789 L2379,1789 L2379,1731 L2321,1731 L2321,1789 Z "
       id="path4644" />
    <path
       d="M2379,1789 L2437,1789 L2437,1731 L2379,1731 L2379,1789 Z "
       id="path4646" />
    <path
       d="M2321,1847 L2379,1847 L2379,1789 L2321,1789 L2321,1847 Z "
       id="path4648" />
    <path
       d="M2321,1731 L2379,1731 L2379,1673 L2321,1673 L2321,1731 Z "
       id="path4650" />
    <circle
       cx="2900"
       cy="1110"
       r="0.1"
       id="circle4652" />
    <circle
       cx="2900"
       cy="1110"
       r="0.1"
       id="circle4654" />
    <circle
       cx="2900"
       cy="1110"
       r="0.1"
       id="circle4656" />
    <path
       d="M2813,1139 L2871,1139 L2871,1081 L2813,1081 L2813,1139 Z "
       id="path4658" />
    <path
       d="M2871,1139 L2929,1139 L2929,1081 L2871,1081 L2871,1139 Z "
       id="path4660" />
    <path
       d="M2929,1139 L2987,1139 L2987,1081 L2929,1081 L2929,1139 Z "
       id="path4662" />
    <path
       d="M2871,1197 L2929,1197 L2929,1139 L2871,1139 L2871,1197 Z "
       id="path4664" />
    <path
       d="M2871,1081 L2929,1081 L2929,1023 L2871,1023 L2871,1081 Z "
       id="path4666" />
    <circle
       cx="2100"
       cy="800"
       r="0.1"
       id="circle4668" />
    <circle
       cx="2100"
       cy="800"
       r="0.1"
       id="circle4670" />
    <circle
       cx="2100"
       cy="800"
       r="0.1"
       id="circle4672" />
    <path
       d="M2013,829 L2071,829 L2071,771 L2013,771 L2013,829 Z "
       id="path4674" />
    <path
       d="M2071,829 L2129,829 L2129,771 L2071,771 L2071,829 Z "
       id="path4676" />
    <path
       d="M2129,829 L2187,829 L2187,771 L2129,771 L2129,829 Z "
       id="path4678" />
    <path
       d="M2071,887 L2129,887 L2129,829 L2071,829 L2071,887 Z "
       id="path4680" />
    <path
       d="M2071,771 L2129,771 L2129,713 L2071,713 L2071,771 Z "
       id="path4682" />
    <circle
       cx="1050"
       cy="1760"
       r="0.1"
       id="circle4684" />
    <circle
       cx="1050"
       cy="1760"
       r="0.1"
       id="circle4686" />
    <circle
       cx="1050"
       cy="1760"
       r="0.1"
       id="circle4688" />
    <path
       d="M1137,1789 L1079,1789 L1079,1731 L1137,1731 L1137,1789 Z "
       id="path4690" />
    <path
       d="M1079,1789 L1021,1789 L1021,1731 L1079,1731 L1079,1789 Z "
       id="path4692" />
    <path
       d="M1021,1789 L963,1789 L963,1731 L1021,1731 L1021,1789 Z "
       id="path4694" />
    <path
       d="M1079,1847 L1021,1847 L1021,1789 L1079,1789 L1079,1847 Z "
       id="path4696" />
    <path
       d="M1079,1731 L1021,1731 L1021,1673 L1079,1673 L1079,1731 Z "
       id="path4698" />
    <circle
       cx="500"
       cy="1110"
       r="0.1"
       id="circle4700" />
    <circle
       cx="500"
       cy="1110"
       r="0.1"
       id="circle4702" />
    <circle
       cx="500"
       cy="1110"
       r="0.1"
       id="circle4704" />
    <path
       d="M587,1139 L529,1139 L529,1081 L587,1081 L587,1139 Z "
       id="path4706" />
    <path
       d="M529,1139 L471,1139 L471,1081 L529,1081 L529,1139 Z "
       id="path4708" />
    <path
       d="M471,1139 L413,1139 L413,1081 L471,1081 L471,1139 Z "
       id="path4710" />
    <path
       d="M529,1197 L471,1197 L471,1139 L529,1139 L529,1197 Z "
       id="path4712" />
    <path
       d="M529,1081 L471,1081 L471,1023 L529,1023 L529,1081 Z "
       id="path4714" />
    <circle
       cx="1300"
       cy="800"
       r="0.1"
       id="circle4716" />
    <circle
       cx="1300"
       cy="800"
       r="0.1"
       id="circle4718" />
    <circle
       cx="1300"
       cy="800"
       r="0.1"
       id="circle4720" />
    <path
       d="M1387,829 L1329,829 L1329,771 L1387,771 L1387,829 Z "
       id="path4722" />
    <path
       d="M1329,829 L1271,829 L1271,771 L1329,771 L1329,829 Z "
       id="path4724" />
    <path
       d="M1271,829 L1213,829 L1213,771 L1271,771 L1271,829 Z "
       id="path4726" />
    <path
       d="M1329,887 L1271,887 L1271,829 L1329,829 L1329,887 Z "
       id="path4728" />
    <path
       d="M1329,771 L1271,771 L1271,713 L1329,713 L1329,771 Z "
       id="path4730" />
    <path
       style="fill:#4d4d4d;stroke-width:3.71577859"
       d="m 3621.68,6441.2312 0,-100.3261 98.4681,0 98.4682,0 0,100.3261 0,100.326 -98.4682,0 -98.4681,0 0,-100.326 z"
       id="path4934"
       inkscape:connector-curvature="0"
       transform="scale(0.28222222,0.28222222)" />
    <path
       style="fill:#4d4d4d;stroke-width:10.50980949"
       d="m 8233.1257,6442.5833 0,-94.5883 94.5883,0 94.5883,0 0,94.5883 0,94.5883 -94.5883,0 -94.5883,0 0,-94.5883 z"
       id="path4936"
       inkscape:connector-curvature="0"
       transform="scale(0.28222222,0.28222222)" />
    <path
       style="fill:#4d4d4d;stroke-width:10.50980949"
       d="m 10177.44,4140.9351 0,-94.5883 94.589,0 94.588,0 0,94.5883 0,94.5883 -94.588,0 -94.589,0 0,-94.5883 z"
       id="path4938"
       inkscape:connector-curvature="0"
       transform="scale(0.28222222,0.28222222)" />
    <path
       style="fill:#4d4d4d;stroke-width:10.50980949"
       d="m 7339.792,3037.4051 0,-94.5882 99.8431,0 99.8432,0 0,94.5882 0,94.5883 -99.8432,0 -99.8431,0 0,-94.5883 z"
       id="path4940"
       inkscape:connector-curvature="0"
       transform="scale(0.28222222,0.28222222)" />
    <path
       style="fill:#4d4d4d;stroke-width:10.50980949"
       d="m 4512.6533,3037.4051 0,-94.5882 94.5883,0 94.5883,0 0,94.5882 0,94.5883 -94.5883,0 -94.5883,0 0,-94.5883 z"
       id="path4942"
       inkscape:connector-curvature="0"
       transform="scale(0.28222222,0.28222222)" />
    <path
       style="fill:#4d4d4d;stroke-width:10.50980949"
       d="m 1675.0048,4140.9351 0,-94.5883 94.5883,0 94.5883,0 0,94.5883 0,94.5883 -94.5883,0 -94.5883,0 0,-94.5883 z"
       id="path4944"
       inkscape:connector-curvature="0"
       transform="scale(0.28222222,0.28222222)" />
    <path
       style="fill:#0000ff;stroke-width:10.50980949"
       d="m 1675.0048,3731.0525 0,-94.5882 94.5883,0 94.5883,0 0,94.5882 0,94.5883 -94.5883,0 -94.5883,0 0,-94.5883 z"
       id="path4946"
       inkscape:connector-curvature="0"
       transform="scale(0.28222222,0.28222222)" />
    <path
       style="fill:#0000ff;stroke-width:10.50980949"
       d="m 4512.6533,2627.5226 0,-94.5883 94.5883,0 94.5883,0 0,94.5883 0,94.5883 -94.5883,0 -94.5883,0 0,-94.5883 z"
       id="path4948"
       inkscape:connector-curvature="0"
       transform="scale(0.28222222,0.28222222)" />
    <path
       style="fill:#0000ff;stroke-width:10.50980949"
       d="m 7339.792,2627.5226 0,-94.5883 99.8431,0 99.8432,0 0,94.5883 0,94.5883 -99.8432,0 -99.8431,0 0,-94.5883 z"
       id="path4950"
       inkscape:connector-curvature="0"
       transform="scale(0.28222222,0.28222222)" />
    <path
       style="fill:#0000ff;stroke-width:10.50980949"
       d="m 10177.44,3731.0525 0,-94.5882 94.589,0 94.588,0 0,94.5882 0,94.5883 -94.588,0 -94.589,0 0,-94.5883 z"
       id="path4952"
       inkscape:connector-curvature="0"
       transform="scale(0.28222222,0.28222222)" />
    <path
       style="fill:#0000ff;stroke-width:10.50980949"
       d="m 8233.1257,6032.7008 0,-94.5883 94.5883,0 94.5883,0 0,94.5883 0,94.5882 -94.5883,0 -94.5883,0 0,-94.5882 z"
       id="path4954"
       inkscape:connector-curvature="0"
       transform="scale(0.28222222,0.28222222)" />
    <path
       style="fill:#0000ff;stroke-width:10.50980949"
       d="m 3619.3195,6032.7008 0,-94.5883 99.8432,0 99.8432,0 0,94.5883 0,94.5882 -99.8432,0 -99.8432,0 0,-94.5882 z"
       id="path4956"
       inkscape:connector-curvature="0"
       transform="scale(0.28222222,0.28222222)" />
    <path
       style="fill:#ff0000;stroke-width:10.50980949"
       d="m 9977.7541,3930.7389 0,-94.5883 94.5879,0 94.589,0 0,94.5883 0,94.5883 -94.589,0 -94.5879,0 0,-94.5883 z"
       id="path4958"
       inkscape:connector-curvature="0"
       transform="scale(0.28222222,0.28222222)" />
    <path
       style="fill:#ff0000;stroke-width:10.50980949"
       d="m 7140.1056,2837.7188 0,-94.5883 94.5883,0 94.5883,0 0,94.5883 0,94.5883 -94.5883,0 -94.5883,0 0,-94.5883 z"
       id="path4960"
       inkscape:connector-curvature="0"
       transform="scale(0.28222222,0.28222222)" />
    <path
       style="fill:#ff0000;stroke-width:10.50980949"
       d="m 8022.9296,6237.642 0,-99.8432 94.5882,0 94.5883,0 0,99.8432 0,99.8432 -94.5883,0 -94.5882,0 0,-99.8432 z"
       id="path4962"
       inkscape:connector-curvature="0"
       transform="scale(0.28222222,0.28222222)" />
    <path
       style="fill:#ff0000;stroke-width:10.50980949"
       d="m 3829.5157,6237.642 0,-99.8432 94.5883,0 94.5883,0 0,99.8432 0,99.8432 -94.5883,0 -94.5883,0 0,-99.8432 z"
       id="path4964"
       inkscape:connector-curvature="0"
       transform="scale(0.28222222,0.28222222)" />
    <path
       style="fill:#ff0000;stroke-width:10.50980949"
       d="m 1885.201,3930.7389 0,-94.5883 94.5883,0 94.5883,0 0,94.5883 0,94.5883 -94.5883,0 -94.5883,0 0,-94.5883 z"
       id="path4966"
       inkscape:connector-curvature="0"
       transform="scale(0.28222222,0.28222222)" />
    <path
       style="fill:#ff0000;stroke-width:10.50980949"
       d="m 4712.3397,2837.7188 0,-94.5883 99.8432,0 99.8431,0 0,94.5883 0,94.5883 -99.8431,0 -99.8432,0 0,-94.5883 z"
       id="path4968"
       inkscape:connector-curvature="0"
       transform="scale(0.28222222,0.28222222)" />
    <path
       style="fill:#ffff00;stroke-width:10.50980949"
       d="m 4512.6533,2837.7188 0,-94.5883 94.5883,0 94.5883,0 0,94.5883 0,94.5883 -94.5883,0 -94.5883,0 0,-94.5883 z"
       id="path4970"
       inkscape:connector-curvature="0"
       transform="scale(0.28222222,0.28222222)" />
    <path
       style="fill:#ffff00;stroke-width:10.50980949"
       d="m 1675.0048,3930.7389 0,-94.5883 94.5883,0 94.5883,0 0,94.5883 0,94.5883 -94.5883,0 -94.5883,0 0,-94.5883 z"
       id="path4972"
       inkscape:connector-curvature="0"
       transform="scale(0.28222222,0.28222222)" />
    <path
       style="fill:#ffff00;stroke-width:10.50980949"
       d="m 3619.3195,6232.3871 0,-94.5883 99.8432,0 99.8432,0 0,94.5883 0,94.5883 -99.8432,0 -99.8432,0 0,-94.5883 z"
       id="path4974"
       inkscape:connector-curvature="0"
       transform="scale(0.28222222,0.28222222)" />
    <path
       style="fill:#ffff00;stroke-width:10.50980949"
       d="m 8233.1257,6232.3871 0,-94.5883 94.5883,0 94.5883,0 0,94.5883 0,94.5883 -94.5883,0 -94.5883,0 0,-94.5883 z"
       id="path4976"
       inkscape:connector-curvature="0"
       transform="scale(0.28222222,0.28222222)" />
    <path
       style="fill:#ffff00;stroke-width:10.50980949"
       d="m 10177.44,3930.7389 0,-94.5883 94.589,0 94.588,0 0,94.5883 0,94.5883 -94.588,0 -94.589,0 0,-94.5883 z"
       id="path4978"
       inkscape:connector-curvature="0"
       transform="scale(0.28222222,0.28222222)" />
    <path
       style="fill:#ffff00;stroke-width:10.50980949"
       d="m 7339.792,2837.7188 0,-94.5883 99.8431,0 99.8432,0 0,94.5883 0,94.5883 -99.8432,0 -99.8431,0 0,-94.5883 z"
       id="path4980"
       inkscape:connector-curvature="0"
       transform="scale(0.28222222,0.28222222)" />
    <path
       style="fill:#00ff00;stroke-width:10.50980949"
       d="m 1464.8086,3930.7389 0,-94.5883 99.8432,0 99.8432,0 0,94.5883 0,94.5883 -99.8432,0 -99.8432,0 0,-94.5883 z"
       id="path4982"
       inkscape:connector-curvature="0"
       transform="scale(0.28222222,0.28222222)" />
    <path
       style="fill:#00ff00;stroke-width:10.50980949"
       d="m 4302.4571,2837.7188 0,-94.5883 94.5883,0 94.5883,0 0,94.5883 0,94.5883 -94.5883,0 -94.5883,0 0,-94.5883 z"
       id="path4984"
       inkscape:connector-curvature="0"
       transform="scale(0.28222222,0.28222222)" />
    <path
       style="fill:#00ff00;stroke-width:10.50980949"
       d="m 7549.9881,2837.7188 0,-94.5883 94.5883,0 94.5883,0 0,94.5883 0,94.5883 -94.5883,0 -94.5883,0 0,-94.5883 z"
       id="path4986"
       inkscape:connector-curvature="0"
       transform="scale(0.28222222,0.28222222)" />
    <path
       style="fill:#00ff00;stroke-width:10.50980949"
       d="m 10387.637,3930.7389 0,-94.5883 94.588,0 94.588,0 0,94.5883 0,94.5883 -94.588,0 -94.588,0 0,-94.5883 z"
       id="path4988"
       inkscape:connector-curvature="0"
       transform="scale(0.28222222,0.28222222)" />
    <path
       style="fill:#00ff00;stroke-width:10.50980949"
       d="m 8432.8121,6237.642 0,-99.8432 99.8432,0 99.8432,0 0,99.8432 0,99.8432 -99.8432,0 -99.8432,0 0,-99.8432 z"
       id="path4990"
       inkscape:connector-curvature="0"
       transform="scale(0.28222222,0.28222222)" />
    <path
       style="fill:#00ff00;stroke-width:10.50980949"
       d="m 3419.6331,6237.642 0,-99.8432 94.5883,0 94.5883,0 0,99.8432 0,99.8432 -94.5883,0 -94.5883,0 0,-99.8432 z"
       id="path4992"
       inkscape:connector-curvature="0"
       transform="scale(0.28222222,0.28222222)" />
    <path
       style="fill:#ff2a2a;stroke-width:7.43155718"
       d="m 791.36339,8925.5286 0,-575.9457 575.94571,0 575.9457,0 0,575.9457 0,575.9457 -575.9457,0 -575.94571,0 0,-575.9457 z"
       id="path4994"
       inkscape:connector-curvature="0"
       transform="scale(0.28222222,0.28222222)" />
    <path
       style="fill:#ff2a2a;stroke-width:7.43155718"
       d="m 204.27036,8067.4058 0,-74.0936 94.75236,-2.0799 94.75236,-2.0799 0,-18.5789 0,-18.5789 -94.75236,-2.0799 -94.75236,-2.08 0,-74.0935 0,-74.0935 170.92582,0 170.92582,0 0,170.9258 0,170.9258 -170.92582,0 -170.92582,0 0,-74.0935 z"
       id="path4996"
       inkscape:connector-curvature="0"
       transform="scale(0.28222222,0.28222222)" />
    <path
       style="fill:#ff2a2a;stroke-width:7.43155718"
       d="m 717.04782,6324.4835 0,-471.9039 702.28218,0 702.2822,0 0,471.9039 0,471.9039 -702.2822,0 -702.28218,0 0,-471.9039 z"
       id="path4998"
       inkscape:connector-curvature="0"
       transform="scale(0.28222222,0.28222222)" />
    <path
       style="fill:#ff2a2a;stroke-width:7.43155718"
       d="m 717.04782,7580.4167 0,-561.0826 702.28218,0 702.2822,0 0,248.9572 0,248.9572 1010.6918,0 1010.6917,0 0,312.1254 0,312.1254 -29.6368,0 -29.6369,0 -1.9472,-280.5413 -1.9473,-280.5413 -979.1077,-1.8853 -979.1076,-1.8853 0,282.4266 0,282.4266 -702.2822,0 -702.28218,0 0,-561.0826 z"
       id="path5000"
       inkscape:connector-curvature="0"
       transform="scale(0.28222222,0.28222222)" />
    <path
       style="fill:#ff2a2a;stroke-width:7.43155718"
       d="m 939.99454,5252.4698 c -54.57977,-27.2656 -65.80253,-98.3947 -22.37651,-141.8207 37.9084,-37.9084 94.43947,-34.859 129.65637,6.994 35.5305,42.2255 19.9985,112.8288 -30.0451,136.5761 -30.5959,14.5187 -45.33814,14.1848 -77.23476,-1.7494 z"
       id="path5002"
       inkscape:connector-curvature="0"
       transform="scale(0.28222222,0.28222222)" />
    <path
       style="fill:#ff2a2a;stroke-width:7.43155718"
       d="m 733.76882,5257.8235 c -15.84811,-6.3702 -16.721,-10.7842 -16.721,-84.5533 0,-49.6433 3.02837,-79.7039 8.36161,-83 15.3849,-9.5084 65.26151,-5.3041 84.18716,7.0965 59.28463,38.8448 55.89592,126.5877 -6.02373,155.9705 -28.3678,13.4614 -44.84118,14.5201 -69.80404,4.4863 z"
       id="path5004"
       inkscape:connector-curvature="0"
       transform="scale(0.28222222,0.28222222)" />
    <path
       style="fill:#ff2a2a;stroke-width:7.43155718"
       d="m 204.27036,1334.4148 0,-74.0935 94.66122,-2.0799 c 85.83782,-1.8861 94.91103,-3.3824 97.34146,-16.0526 4.30608,-22.4484 -12.1783,-26.6666 -104.68188,-26.7871 l -87.3208,-0.1138 0,-74.3156 0,-74.3156 170.92582,0 170.92582,0 0,170.9258 0,170.9259 -170.92582,0 -170.92582,0 0,-74.0936 z"
       id="path5006"
       inkscape:connector-curvature="0"
       transform="scale(0.28222222,0.28222222)" />
    <path
       style="fill:#ff2a2a;stroke-width:7.43155718"
       d="m 635.30069,572.45816 0,-33.44201 438.46191,0 438.4619,0 0,33.44201 0,33.44201 -438.4619,0 -438.46191,0 0,-33.44201 z"
       id="path5008"
       inkscape:connector-curvature="0"
       transform="scale(0.28222222,0.28222222)" />
    <path
       style="fill:#ff2a2a;stroke-width:7.43155718"
       d="m 2826.8169,1412.6669 c -28.5426,-16.1322 -43.7961,-44.0908 -43.7961,-80.2749 0,-52.7075 37.0077,-87.3779 93.2685,-87.3779 20.8428,0 32.8715,5.7488 51.9519,24.8292 41.3998,41.3998 42.9847,81.9339 4.8715,124.5899 -24.6091,27.5424 -74.6412,36.1248 -106.2958,18.2337 z"
       id="path5010"
       inkscape:connector-curvature="0"
       transform="scale(0.28222222,0.28222222)" />
    <path
       style="fill:#ff2a2a;stroke-width:7.43155718"
       d="m 5288.6861,617.0475 0,-360.43053 326.9885,0 326.9885,0 0,360.43053 0,360.43053 -326.9885,0 -326.9885,0 0,-360.43053 z"
       id="path5012"
       inkscape:connector-curvature="0"
       transform="scale(0.28222222,0.28222222)" />
    <path
       style="fill:#ff2a2a;stroke-width:7.43155718"
       d="m 6026.0302,1107.5303 0,-33.442 1058.997,0 1058.9969,0 0,33.442 0,33.442 -1058.9969,0 -1058.997,0 0,-33.442 z"
       id="path5014"
       inkscape:connector-curvature="0"
       transform="scale(0.28222222,0.28222222)" />
    <path
       style="fill:#ff2a2a;stroke-width:7.43155718"
       d="m 6026.0302,1910.1385 0,-33.442 1058.997,0 1058.9969,0 0,33.442 0,33.442 -1058.9969,0 -1058.997,0 0,-33.442 z"
       id="path5016"
       inkscape:connector-curvature="0"
       transform="scale(0.28222222,0.28222222)" />
    <path
       style="fill:#ff2a2a;stroke-width:1.85788929"
       d="m 8165.6464,1892.1898 c -0.6792,-3.0922 -4.0898,-9.8646 -7.5792,-15.0498 l -6.3443,-9.4277 0,-401.1174 0,-401.1174 8.3605,0 8.3605,0 0,416.1672 c 0,228.892 -0.3516,416.1672 -0.7814,416.1672 -0.4297,0 -1.337,-2.5299 -2.0161,-5.6221 z"
       id="path5020"
       inkscape:connector-curvature="0"
       transform="scale(0.28222222,0.28222222)" />
    <path
       style="fill:#ff2a2a;stroke-width:7.43155718"
       d="m 9138.0413,1199.2252 c -29.4493,-15.0066 -47.9523,-47.0803 -47.8098,-82.8752 0.1848,-46.3947 3.2525,-47.9538 89.6727,-45.5744 l 77.4236,2.1317 6.4375,26.0394 c 17.4343,70.5202 -61.1379,133.19 -125.724,100.2785 z"
       id="path5022"
       inkscape:connector-curvature="0"
       transform="scale(0.28222222,0.28222222)" />
    <path
       style="fill:#ff2a2a;stroke-width:7.43155718"
       d="m 11496.654,4606.6128 0,-170.9259 174.641,0 174.642,0 0,74.0936 0,74.0935 -94.752,2.08 -94.753,2.0799 0,18.5789 0,18.5789 94.753,2.0799 94.752,2.0799 0,74.0935 0,74.0936 -174.642,0 -174.641,0 0,-170.9258 z"
       id="path5024"
       inkscape:connector-curvature="0"
       transform="scale(0.28222222,0.28222222)" />
    <path
       style="fill:#ff2a2a;stroke-width:7.43155718"
       d="m 5318.5518,8768.4147 0,-163.3644 183.9311,-1.9877 183.931,-1.9878 0,-18.5789 0,-18.5789 -183.931,-1.9877 -183.9311,-1.9877 0,-126.2066 0,-126.2067 349.2832,0 349.2832,0 0,312.1254 0,312.1254 -349.2832,0 -349.2832,0 0,-163.3644 z"
       id="path5026"
       inkscape:connector-curvature="0"
       transform="scale(0.28222222,0.28222222)" />
    <path
       style="fill:#ff2a2a;stroke-width:7.43155718"
       d="m 4255.8391,8266.6548 0,-33.4421 527.6406,0 527.6406,0 0,33.4421 0,33.442 -527.6406,0 -527.6406,0 0,-33.442 z"
       id="path5028"
       inkscape:connector-curvature="0"
       transform="scale(0.28222222,0.28222222)" />
    <path
       style="fill:#008000;stroke-width:7.43155718"
       d="m 6031.9813,8619.6537 0,-312.1254 349.2832,0 349.2832,0 0,126.2067 0,126.2066 -183.931,1.9877 -183.9311,1.9877 0,18.5789 0,18.5789 183.9311,1.9878 183.931,1.9877 0,163.3644 0,163.3644 -349.2832,0 -349.2832,0 0,-312.1254 z"
       id="path5030"
       inkscape:connector-curvature="0"
       transform="scale(0.28222222,0.28222222)" />
    <path
       style="fill:#008000;stroke-width:7.43155718"
       d="m 6737.9793,8266.6548 0,-33.4421 527.6405,0 527.6406,0 0,33.4421 0,33.442 -527.6406,0 -527.6405,0 0,-33.442 z"
       id="path5032"
       inkscape:connector-curvature="0"
       transform="scale(0.28222222,0.28222222)" />
    <path
       style="fill:#008000;stroke-width:7.43155718"
       d="m 7904.7338,7831.9086 0,-312.1254 1010.6918,0 1010.6918,0 0,-248.9571 0,-248.9572 126.3366,0 126.336,0 0,561.0826 0,561.0826 -126.336,0 -126.3366,0 0,-282.3992 0,-282.3992 -980.9656,0 -980.9656,0 0,282.3992 0,282.3992 -29.7262,0 -29.7262,0 0,-312.1255 z"
       id="path5034"
       inkscape:connector-curvature="0"
       transform="scale(0.28222222,0.28222222)" />
    <path
       style="fill:#008000;stroke-width:21.01961899"
       d="m 10202.402,7582.1981 0,-546.5101 567.53,0 567.53,0 0,546.5101 0,546.5101 -567.53,0 -567.53,0 0,-546.5101 z"
       id="path5036"
       inkscape:connector-curvature="0"
       transform="scale(0.28222222,0.28222222)" />
    <path
       style="fill:#008000;stroke-width:21.01961899"
       d="m 9929.1472,6321.021 0,-462.4316 704.1568,0 704.158,0 0,462.4316 0,462.4316 -704.158,0 -704.1568,0 0,-462.4316 z"
       id="path5038"
       inkscape:connector-curvature="0"
       transform="scale(0.28222222,0.28222222)" />
    <path
       style="fill:#008000;stroke-width:29.72622871"
       d="m 10128.308,8912.221 0,-564.7984 564.799,0 564.798,0 0,564.7984 0,564.7983 -564.798,0 -564.799,0 0,-564.7983 z"
       id="path5040"
       inkscape:connector-curvature="0"
       transform="scale(0.28222222,0.28222222)" />
  </g>
  <path
     style="fill:#008000"
     d="m 11022.941,5247.7918 c -68.444,-46.0345 -50.71,-143.7013 29,-159.7095 56.813,-11.4097 106.388,33.8953 102.091,93.2989 -1.925,26.6131 -14.618,47.433 -39.637,65.0173 -13.782,9.686 -19.923,11.4152 -44.486,12.5267 -27.141,1.2281 -29.376,0.6983 -46.968,-11.1334 z"
     id="path5121"
     inkscape:connector-curvature="0"
     transform="scale(0.28222222,0.28222222)" />
</svg>
